<svg xmlns="http://www.w3.org/2000/svg" xmlns:xlink="http://www.w3.org/1999/xlink" width="500" zoomAndPan="magnify" viewBox="0 0 375 374.999991" height="500" preserveAspectRatio="xMidYMid meet" version="1.0"><defs><clipPath id="74248e00ec"><path d="M 16.152344 189 L 155 189 L 155 347.863281 L 16.152344 347.863281 Z M 16.152344 189 " clip-rule="nonzero"/></clipPath></defs><path fill="#1800ad" d="M 220.949219 177.890625 C 219.625 177.890625 218.300781 177.230469 217.636719 176.566406 L 155.371094 106.351562 C 142.785156 91.777344 140.136719 73.230469 148.085938 56.007812 C 154.046875 44.085938 167.957031 29.511719 187.828125 27.523438 C 200.414062 26.863281 211.675781 30.835938 220.949219 40.109375 C 230.222656 30.835938 242.148438 26.863281 254.070312 27.523438 C 274.605469 29.511719 287.855469 44.085938 293.816406 56.007812 C 301.765625 73.230469 299.113281 91.777344 286.53125 106.351562 L 224.925781 176.566406 C 223.601562 177.230469 222.277344 177.890625 220.949219 177.890625 Z M 191.804688 37.460938 C 190.480469 37.460938 189.816406 37.460938 188.492188 37.460938 C 173.257812 38.785156 161.996094 50.710938 157.359375 60.644531 C 150.734375 73.894531 152.722656 88.464844 162.660156 99.726562 L 220.949219 165.304688 L 279.242188 99.726562 C 289.179688 88.464844 291.167969 73.894531 284.542969 60.644531 C 279.90625 50.710938 269.308594 38.785156 253.410156 37.460938 C 242.808594 36.796875 232.875 40.773438 224.925781 50.710938 C 224.261719 51.371094 222.277344 52.035156 220.949219 52.035156 C 219.625 52.035156 218.300781 51.371094 216.976562 50.710938 C 209.691406 42.097656 201.078125 37.460938 191.804688 37.460938 Z M 191.804688 37.460938 " fill-opacity="1" fill-rule="evenodd"/><g clip-path="url(#74248e00ec)"><path fill="#1800ad" d="M 85.15625 348.132812 C 85.15625 348.132812 84.492188 348.132812 83.832031 348.132812 C 82.507812 347.46875 81.84375 346.808594 81.183594 345.480469 L 16.929688 234.859375 C 16.265625 233.535156 16.265625 232.210938 16.265625 230.886719 C 16.929688 229.558594 17.589844 228.234375 18.914062 227.574219 L 83.167969 190.476562 C 85.820312 189.152344 88.46875 189.816406 89.792969 192.464844 L 154.046875 303.75 C 155.371094 305.738281 154.710938 309.050781 152.058594 310.375 L 87.804688 347.46875 C 87.144531 348.132812 86.480469 348.132812 85.15625 348.132812 Z M 28.1875 234.195312 L 87.144531 336.207031 L 142.785156 304.414062 L 83.832031 201.738281 Z M 28.1875 234.195312 " fill-opacity="1" fill-rule="evenodd"/></g><path fill="#1800ad" d="M 139.472656 293.152344 C 138.148438 293.152344 136.160156 292.488281 135.5 290.503906 C 134.175781 288.515625 134.835938 285.203125 136.824219 283.878906 L 141.460938 281.226562 C 142.785156 280.566406 143.449219 280.566406 144.109375 280.566406 C 155.371094 280.566406 167.957031 280.566406 179.21875 280.566406 C 201.742188 279.902344 224.261719 279.902344 246.121094 280.566406 C 263.34375 281.226562 273.945312 275.929688 285.203125 261.355469 L 342.835938 189.152344 C 347.472656 183.191406 345.484375 172.59375 337.535156 166.632812 C 333.558594 163.320312 328.261719 161.332031 322.960938 161.996094 C 320.3125 161.996094 317 163.320312 314.351562 166.632812 L 269.96875 222.273438 C 271.292969 223.597656 271.957031 224.921875 272.617188 226.25 C 275.269531 230.886719 275.929688 236.183594 274.605469 240.820312 C 273.945312 246.121094 270.632812 250.09375 265.996094 253.40625 C 261.359375 256.058594 256.058594 256.71875 250.757812 255.394531 L 185.179688 240.160156 C 182.53125 239.496094 181.207031 236.847656 181.867188 234.195312 C 182.53125 231.546875 185.179688 230.222656 187.828125 230.222656 L 253.410156 246.121094 C 258.707031 247.445312 264.007812 244.132812 265.332031 238.832031 C 265.332031 238.171875 265.332031 238.171875 265.332031 238.171875 C 265.996094 236.183594 265.332031 233.535156 264.007812 231.546875 C 263.34375 230.222656 262.019531 228.898438 260.695312 227.574219 C 260.03125 227.574219 260.03125 227.574219 260.03125 227.574219 C 259.371094 226.910156 258.707031 226.910156 258.046875 226.910156 L 191.140625 209.6875 C 188.492188 208.363281 185.179688 207.699219 182.53125 207.039062 C 168.621094 203.0625 152.722656 198.425781 138.8125 197.101562 C 138.8125 197.101562 136.160156 196.441406 126.226562 202.402344 C 119.601562 205.714844 112.316406 210.351562 107.015625 213.664062 C 103.703125 215.648438 101.054688 216.972656 99.066406 218.300781 C 97.078125 219.625 93.769531 218.960938 92.441406 216.3125 C 91.117188 214.324219 91.78125 211.011719 94.429688 209.6875 C 95.753906 209.027344 98.40625 207.039062 101.714844 205.050781 C 122.25 192.464844 133.511719 185.839844 140.136719 187.164062 C 154.710938 189.152344 170.605469 193.128906 185.179688 197.101562 C 187.828125 198.425781 191.140625 199.089844 193.792969 199.75 L 260.03125 216.972656 C 260.695312 216.972656 260.695312 216.972656 261.359375 216.972656 L 306.402344 160.007812 C 310.375 155.371094 315.675781 152.71875 322.300781 152.058594 C 329.585938 151.394531 337.535156 153.382812 344.160156 158.683594 C 356.082031 168.617188 358.730469 185.179688 350.785156 195.113281 L 293.152344 267.316406 C 279.242188 284.539062 265.996094 291.164062 245.460938 290.503906 C 224.261719 289.839844 201.742188 289.839844 179.21875 290.503906 C 167.957031 290.503906 156.695312 290.503906 145.4375 290.503906 L 142.125 292.488281 C 141.460938 293.152344 140.800781 293.152344 139.472656 293.152344 Z M 139.472656 293.152344 " fill-opacity="1" fill-rule="evenodd"/></svg>