<svg xmlns="http://www.w3.org/2000/svg" xmlns:xlink="http://www.w3.org/1999/xlink" width="500" zoomAndPan="magnify" viewBox="0 0 375 374.999991" height="500" preserveAspectRatio="xMidYMid meet" version="1.0"><defs><clipPath id="9cff544c16"><path d="M 231 157 L 358.746094 157 L 358.746094 289 L 231 289 Z M 231 157 " clip-rule="nonzero"/></clipPath><clipPath id="0d29f896d3"><path d="M 15.996094 157 L 144 157 L 144 289 L 15.996094 289 Z M 15.996094 157 " clip-rule="nonzero"/></clipPath><clipPath id="0b9621d850"><path d="M 98 10.003906 L 170 10.003906 L 170 82 L 98 82 Z M 98 10.003906 " clip-rule="nonzero"/></clipPath><clipPath id="8ce7ff2fbd"><path d="M 205 10.003906 L 277 10.003906 L 277 82 L 205 82 Z M 205 10.003906 " clip-rule="nonzero"/></clipPath><clipPath id="e3d83e4ce4"><path d="M 181 282 L 194 282 L 194 364.753906 L 181 364.753906 Z M 181 282 " clip-rule="nonzero"/></clipPath></defs><path fill="#1800ad" d="M 287.953125 152.011719 C 268.382812 152.011719 252.46875 136.097656 252.46875 116.53125 C 252.46875 96.960938 268.382812 81.046875 287.953125 81.046875 C 307.523438 81.046875 323.4375 96.960938 323.4375 116.53125 C 323.4375 136.097656 307.515625 152.011719 287.953125 152.011719 Z M 287.953125 92.875 C 274.90625 92.875 264.296875 103.484375 264.296875 116.53125 C 264.296875 129.574219 274.90625 140.1875 287.953125 140.1875 C 301 140.1875 311.609375 129.574219 311.609375 116.53125 C 311.609375 103.484375 300.992188 92.875 287.953125 92.875 Z M 287.953125 92.875 " fill-opacity="1" fill-rule="nonzero"/><path fill="#1800ad" d="M 323.4375 317.605469 C 320.171875 317.605469 317.523438 314.953125 317.523438 311.691406 L 317.523438 199.324219 C 317.523438 196.058594 320.171875 193.410156 323.4375 193.410156 C 326.703125 193.410156 329.351562 196.058594 329.351562 199.324219 L 329.351562 311.691406 C 329.351562 314.953125 326.703125 317.605469 323.4375 317.605469 Z M 323.4375 317.605469 " fill-opacity="1" fill-rule="nonzero"/><path fill="#1800ad" d="M 252.46875 341.257812 C 249.207031 341.257812 246.554688 338.609375 246.554688 335.34375 L 246.554688 199.324219 C 246.554688 196.058594 249.207031 193.410156 252.46875 193.410156 C 255.734375 193.410156 258.382812 196.058594 258.382812 199.324219 L 258.382812 335.34375 C 258.382812 338.609375 255.734375 341.257812 252.46875 341.257812 Z M 252.46875 341.257812 " fill-opacity="1" fill-rule="nonzero"/><path fill="#1800ad" d="M 287.953125 329.429688 C 284.6875 329.429688 282.039062 326.78125 282.039062 323.515625 L 282.039062 288.035156 C 282.039062 284.769531 284.6875 282.121094 287.953125 282.121094 C 291.21875 282.121094 293.867188 284.769531 293.867188 288.035156 L 293.867188 323.515625 C 293.867188 326.78125 291.21875 329.429688 287.953125 329.429688 Z M 287.953125 329.429688 " fill-opacity="1" fill-rule="nonzero"/><g clip-path="url(#9cff544c16)"><path fill="#1800ad" d="M 335.265625 288.035156 L 323.4375 288.035156 C 320.171875 288.035156 317.523438 285.382812 317.523438 282.121094 C 317.523438 278.855469 320.171875 276.207031 323.4375 276.207031 L 335.265625 276.207031 C 341.789062 276.207031 347.09375 270.902344 347.09375 264.378906 L 347.09375 199.324219 C 347.09375 183.019531 333.828125 169.753906 317.523438 169.753906 L 258.40625 169.753906 C 252.125 169.753906 246.199219 171.671875 241.269531 175.289062 C 238.632812 177.21875 234.933594 176.652344 233 174.023438 C 231.066406 171.398438 231.636719 167.691406 234.265625 165.757812 C 241.238281 160.636719 249.589844 157.925781 258.40625 157.925781 L 317.523438 157.925781 C 340.351562 157.925781 358.921875 176.496094 358.921875 199.324219 L 358.921875 264.378906 C 358.921875 277.425781 348.304688 288.035156 335.265625 288.035156 Z M 335.265625 288.035156 " fill-opacity="1" fill-rule="nonzero"/></g><path fill="#1800ad" d="M 252.492188 288.035156 L 240.664062 288.035156 C 227.621094 288.035156 217.011719 277.425781 217.011719 264.378906 L 217.011719 252.550781 C 217.011719 249.285156 219.660156 246.636719 222.921875 246.636719 C 226.1875 246.636719 228.835938 249.285156 228.835938 252.550781 L 228.835938 264.378906 C 228.835938 270.902344 234.140625 276.207031 240.664062 276.207031 L 252.492188 276.207031 C 255.757812 276.207031 258.40625 278.855469 258.40625 282.121094 C 258.40625 285.382812 255.757812 288.035156 252.492188 288.035156 Z M 252.492188 288.035156 " fill-opacity="1" fill-rule="nonzero"/><path fill="#1800ad" d="M 86.886719 152.011719 C 67.316406 152.011719 51.402344 136.097656 51.402344 116.53125 C 51.402344 96.960938 67.316406 81.046875 86.886719 81.046875 C 106.453125 81.046875 122.371094 96.960938 122.371094 116.53125 C 122.371094 136.097656 106.449219 152.011719 86.886719 152.011719 Z M 86.886719 92.875 C 73.839844 92.875 63.230469 103.484375 63.230469 116.53125 C 63.230469 129.574219 73.839844 140.1875 86.886719 140.1875 C 99.933594 140.1875 110.542969 129.574219 110.542969 116.53125 C 110.542969 103.484375 99.925781 92.875 86.886719 92.875 Z M 86.886719 92.875 " fill-opacity="1" fill-rule="nonzero"/><path fill="#1800ad" d="M 51.402344 317.605469 C 48.136719 317.605469 45.488281 314.953125 45.488281 311.691406 L 45.488281 199.324219 C 45.488281 196.058594 48.136719 193.410156 51.402344 193.410156 C 54.667969 193.410156 57.316406 196.058594 57.316406 199.324219 L 57.316406 311.691406 C 57.316406 314.953125 54.667969 317.605469 51.402344 317.605469 Z M 51.402344 317.605469 " fill-opacity="1" fill-rule="nonzero"/><path fill="#1800ad" d="M 122.371094 341.257812 C 119.105469 341.257812 116.457031 338.609375 116.457031 335.34375 L 116.457031 199.324219 C 116.457031 196.058594 119.105469 193.410156 122.371094 193.410156 C 125.632812 193.410156 128.28125 196.058594 128.28125 199.324219 L 128.28125 335.34375 C 128.28125 338.609375 125.632812 341.257812 122.371094 341.257812 Z M 122.371094 341.257812 " fill-opacity="1" fill-rule="nonzero"/><path fill="#1800ad" d="M 86.886719 329.429688 C 83.621094 329.429688 80.972656 326.78125 80.972656 323.515625 L 80.972656 288.035156 C 80.972656 284.769531 83.621094 282.121094 86.886719 282.121094 C 90.148438 282.121094 92.800781 284.769531 92.800781 288.035156 L 92.800781 323.515625 C 92.800781 326.78125 90.148438 329.429688 86.886719 329.429688 Z M 86.886719 329.429688 " fill-opacity="1" fill-rule="nonzero"/><g clip-path="url(#0d29f896d3)"><path fill="#1800ad" d="M 51.402344 288.035156 L 39.574219 288.035156 C 26.527344 288.035156 15.917969 277.425781 15.917969 264.378906 L 15.917969 199.324219 C 15.917969 176.496094 34.488281 157.925781 57.316406 157.925781 L 116.472656 157.925781 C 125.277344 157.925781 133.648438 160.652344 140.671875 165.816406 C 143.304688 167.75 143.871094 171.453125 141.9375 174.085938 C 140.003906 176.722656 136.296875 177.285156 133.671875 175.351562 C 128.691406 171.6875 122.742188 169.753906 116.472656 169.753906 L 57.316406 169.753906 C 41.011719 169.753906 27.746094 183.019531 27.746094 199.324219 L 27.746094 264.378906 C 27.746094 270.902344 33.050781 276.207031 39.574219 276.207031 L 51.402344 276.207031 C 54.667969 276.207031 57.316406 278.855469 57.316406 282.121094 C 57.316406 285.382812 54.667969 288.035156 51.402344 288.035156 Z M 51.402344 288.035156 " fill-opacity="1" fill-rule="nonzero"/></g><path fill="#1800ad" d="M 134.214844 288.035156 L 122.386719 288.035156 C 119.121094 288.035156 116.472656 285.382812 116.472656 282.121094 C 116.472656 278.855469 119.121094 276.207031 122.386719 276.207031 L 134.214844 276.207031 C 140.738281 276.207031 146.042969 270.902344 146.042969 264.378906 L 146.042969 252.550781 C 146.042969 249.285156 148.691406 246.636719 151.957031 246.636719 C 155.222656 246.636719 157.871094 249.285156 157.871094 252.550781 L 157.871094 264.378906 C 157.871094 277.425781 147.261719 288.035156 134.214844 288.035156 Z M 134.214844 288.035156 " fill-opacity="1" fill-rule="nonzero"/><g clip-path="url(#0b9621d850)"><path fill="#1800ad" d="M 134.273438 81.046875 C 114.703125 81.046875 98.789062 65.132812 98.789062 45.5625 C 98.789062 25.992188 114.703125 10.078125 134.273438 10.078125 C 153.84375 10.078125 169.757812 25.992188 169.757812 45.5625 C 169.757812 65.132812 153.84375 81.046875 134.273438 81.046875 Z M 134.273438 21.90625 C 121.226562 21.90625 110.617188 32.515625 110.617188 45.5625 C 110.617188 58.609375 121.226562 69.21875 134.273438 69.21875 C 147.320312 69.21875 157.929688 58.609375 157.929688 45.5625 C 157.929688 32.515625 147.320312 21.90625 134.273438 21.90625 Z M 134.273438 21.90625 " fill-opacity="1" fill-rule="nonzero"/></g><g clip-path="url(#8ce7ff2fbd)"><path fill="#1800ad" d="M 240.726562 81.046875 C 221.15625 81.046875 205.242188 65.132812 205.242188 45.5625 C 205.242188 25.992188 221.15625 10.078125 240.726562 10.078125 C 260.292969 10.078125 276.207031 25.992188 276.207031 45.5625 C 276.207031 65.132812 260.292969 81.046875 240.726562 81.046875 Z M 240.726562 21.90625 C 227.679688 21.90625 217.070312 32.515625 217.070312 45.5625 C 217.070312 58.609375 227.679688 69.21875 240.726562 69.21875 C 253.769531 69.21875 264.378906 58.609375 264.378906 45.5625 C 264.378906 32.515625 253.769531 21.90625 240.726562 21.90625 Z M 240.726562 21.90625 " fill-opacity="1" fill-rule="nonzero"/></g><path fill="#1800ad" d="M 187.5 152.011719 C 167.929688 152.011719 152.015625 136.097656 152.015625 116.53125 C 152.015625 96.960938 167.929688 81.046875 187.5 81.046875 C 207.070312 81.046875 222.984375 96.960938 222.984375 116.53125 C 222.984375 136.097656 207.070312 152.011719 187.5 152.011719 Z M 187.5 92.875 C 174.453125 92.875 163.84375 103.484375 163.84375 116.53125 C 163.84375 129.574219 174.453125 140.1875 187.5 140.1875 C 200.546875 140.1875 211.15625 129.574219 211.15625 116.53125 C 211.15625 103.484375 200.546875 92.875 187.5 92.875 Z M 187.5 92.875 " fill-opacity="1" fill-rule="nonzero"/><path fill="#1800ad" d="M 222.984375 353.085938 C 219.71875 353.085938 217.070312 350.4375 217.070312 347.171875 L 217.070312 258.464844 L 157.929688 258.464844 L 157.929688 347.171875 C 157.929688 350.4375 155.28125 353.085938 152.015625 353.085938 C 148.75 353.085938 146.101562 350.4375 146.101562 347.171875 L 146.101562 252.550781 C 146.101562 249.285156 148.75 246.636719 152.015625 246.636719 L 222.984375 246.636719 C 226.246094 246.636719 228.898438 249.285156 228.898438 252.550781 L 228.898438 347.171875 C 228.898438 350.4375 226.246094 353.085938 222.984375 353.085938 Z M 222.984375 353.085938 " fill-opacity="1" fill-rule="nonzero"/><g clip-path="url(#e3d83e4ce4)"><path fill="#1800ad" d="M 187.5 364.914062 C 184.234375 364.914062 181.585938 362.265625 181.585938 359 L 181.585938 288.035156 C 181.585938 284.769531 184.234375 282.121094 187.5 282.121094 C 190.765625 282.121094 193.414062 284.769531 193.414062 288.035156 L 193.414062 359 C 193.414062 362.265625 190.765625 364.914062 187.5 364.914062 Z M 187.5 364.914062 " fill-opacity="1" fill-rule="nonzero"/></g><path fill="#1800ad" d="M 234.8125 258.464844 L 140.1875 258.464844 C 127.140625 258.464844 116.53125 247.855469 116.53125 234.808594 L 116.53125 199.324219 C 116.53125 176.496094 135.101562 157.925781 157.929688 157.925781 L 217.070312 157.925781 C 239.898438 157.925781 258.464844 176.496094 258.464844 199.324219 L 258.464844 234.808594 C 258.464844 247.855469 247.855469 258.464844 234.8125 258.464844 Z M 157.929688 169.753906 C 141.625 169.753906 128.359375 183.019531 128.359375 199.324219 L 128.359375 234.808594 C 128.359375 241.332031 133.664062 246.636719 140.1875 246.636719 L 234.8125 246.636719 C 241.332031 246.636719 246.636719 241.332031 246.636719 234.808594 L 246.636719 199.324219 C 246.636719 183.019531 233.375 169.753906 217.070312 169.753906 Z M 157.929688 169.753906 " fill-opacity="1" fill-rule="nonzero"/><path fill="#1800ad" d="M 146.109375 228.894531 C 145.722656 228.894531 145.332031 228.859375 144.941406 228.777344 C 141.738281 228.136719 139.660156 225.019531 140.304688 221.816406 L 146.21875 192.246094 C 146.859375 189.046875 149.957031 186.964844 153.179688 187.609375 C 156.386719 188.25 158.460938 191.363281 157.816406 194.570312 L 151.902344 224.140625 C 151.339844 226.949219 148.871094 228.894531 146.109375 228.894531 Z M 146.109375 228.894531 " fill-opacity="1" fill-rule="nonzero"/><path fill="#1800ad" d="M 217.070312 258.464844 C 216.3125 258.464844 215.542969 258.316406 214.796875 258.003906 L 143.832031 228.433594 C 141.230469 227.351562 139.757812 224.582031 140.304688 221.816406 L 143.953125 203.570312 C 144.269531 202.003906 145.203125 200.632812 146.546875 199.761719 C 147.886719 198.894531 149.527344 198.609375 151.082031 198.964844 L 221.304688 215.15625 L 217.1875 194.570312 C 216.546875 191.363281 218.625 188.253906 221.824219 187.609375 C 225.027344 186.972656 228.144531 189.046875 228.785156 192.246094 L 234.699219 221.816406 C 235.09375 223.785156 234.460938 225.820312 233.019531 227.222656 C 231.574219 228.621094 229.53125 229.195312 227.570312 228.742188 L 154.359375 211.863281 L 152.855469 219.386719 L 219.347656 247.089844 C 222.363281 248.34375 223.78125 251.8125 222.527344 254.828125 C 221.582031 257.097656 219.382812 258.464844 217.070312 258.464844 Z M 217.070312 258.464844 " fill-opacity="1" fill-rule="nonzero"/></svg>