<svg xmlns="http://www.w3.org/2000/svg" xmlns:xlink="http://www.w3.org/1999/xlink" width="500" zoomAndPan="magnify" viewBox="0 0 375 374.999991" height="500" preserveAspectRatio="xMidYMid meet" version="1.0"><defs><clipPath id="653bc99c94"><path d="M 80 46.253906 L 294 46.253906 L 294 232 L 80 232 Z M 80 46.253906 " clip-rule="nonzero"/></clipPath><clipPath id="259c1dce89"><path d="M 80 46.253906 L 294 46.253906 L 294 232 L 80 232 Z M 80 46.253906 " clip-rule="nonzero"/></clipPath><clipPath id="e51fdf3f34"><path d="M 200 130 L 359.269531 130 L 359.269531 329 L 200 329 Z M 200 130 " clip-rule="nonzero"/></clipPath><clipPath id="73c6b2f64c"><path d="M 15.769531 126 L 171 126 L 171 328 L 15.769531 328 Z M 15.769531 126 " clip-rule="nonzero"/></clipPath><clipPath id="630d537d4d"><path d="M 195 130 L 359.269531 130 L 359.269531 329 L 195 329 Z M 195 130 " clip-rule="nonzero"/></clipPath><clipPath id="db9ef9cc49"><path d="M 15.769531 126 L 177 126 L 177 328 L 15.769531 328 Z M 15.769531 126 " clip-rule="nonzero"/></clipPath></defs><g clip-path="url(#653bc99c94)"><path fill="#1800ad" d="M 180.929688 230.007812 L 180.816406 229.925781 C 156.621094 211.976562 131.871094 193.628906 113.554688 174.867188 C 95.222656 156.09375 82.554688 136.136719 80.730469 114.753906 C 78.925781 93.636719 87.8125 71.890625 100.707031 59.699219 C 111.382812 49.609375 124.40625 46.375 136.023438 46.375 C 138.878906 46.375 141.660156 46.570312 144.328125 46.90625 C 157.921875 48.621094 169.023438 54.121094 177.449219 61.871094 C 185.738281 69.5 191.210938 79.164062 196.148438 87.796875 L 185.164062 87.945312 C 191.042969 76.988281 197.777344 64.136719 210.171875 56.304688 C 218.019531 51.34375 227.859375 48.527344 238.054688 48.527344 C 244.042969 48.527344 250.203125 49.5 256.207031 51.625 C 272.289062 57.308594 287.273438 71.328125 291.640625 90.652344 C 295.941406 109.6875 289.636719 132.683594 279.167969 151.054688 C 268.546875 169.691406 253.320312 184.199219 238.300781 196.089844 C 223.449219 207.847656 208.429688 217.332031 200.050781 222.625 L 199.753906 222.808594 C 191.441406 228.058594 189.761719 229.152344 188.085938 230.234375 C 185.886719 231.660156 183.035156 231.570312 180.929688 230.007812 M 188.414062 219.921875 L 181.253906 219.695312 C 182.984375 218.574219 184.714844 217.449219 193.046875 212.1875 L 193.34375 212.003906 C 201.722656 206.710938 216.230469 197.542969 230.503906 186.242188 C 244.953125 174.804688 258.773438 161.472656 268.253906 144.835938 C 277.886719 127.9375 282.734375 108.234375 279.386719 93.421875 C 276.105469 78.902344 264.644531 67.929688 252.019531 63.464844 C 247.429688 61.84375 242.6875 61.089844 238.054688 61.089844 C 230.09375 61.089844 222.605469 63.308594 216.882812 66.925781 C 207.757812 72.6875 202.425781 82.339844 196.234375 93.882812 C 195.152344 95.894531 193.066406 97.164062 190.785156 97.195312 C 188.5 97.226562 186.378906 96.015625 185.246094 94.035156 C 180.136719 85.105469 175.5625 77.207031 168.941406 71.117188 C 162.457031 65.144531 153.785156 60.761719 142.753906 59.367188 C 140.570312 59.09375 138.3125 58.9375 136.023438 58.9375 C 126.691406 58.9375 117.082031 61.503906 109.335938 68.828125 C 99.285156 78.332031 91.761719 96.296875 93.246094 113.6875 C 94.707031 130.8125 105.027344 148.15625 122.542969 166.09375 C 140.015625 183.992188 163.871094 201.714844 188.300781 219.835938 Z M 188.414062 219.921875 " fill-opacity="1" fill-rule="nonzero"/></g><path fill="#1800ad" d="M 122.597656 119.636719 L 122.488281 118.472656 C 123.867188 125.773438 125.09375 132.09375 129.332031 139.214844 C 133.746094 146.636719 141.582031 155.175781 147.757812 160.683594 C 153.671875 165.957031 157.738281 168.167969 162.164062 170.574219 C 165.210938 172.230469 166.335938 176.042969 164.679688 179.09375 C 163.023438 182.140625 159.210938 183.265625 156.160156 181.609375 C 151.453125 179.046875 146.386719 176.292969 139.398438 170.058594 C 132.671875 164.058594 123.835938 154.550781 118.535156 145.636719 C 113.054688 136.421875 111.527344 128.121094 110.144531 120.800781 C 110.074219 120.417969 110.035156 120.027344 110.035156 119.636719 C 110.035156 116.167969 112.847656 113.355469 116.316406 113.355469 C 119.785156 113.355469 122.597656 116.167969 122.597656 119.636719 Z M 122.597656 119.636719 " fill-opacity="1" fill-rule="nonzero"/><g clip-path="url(#259c1dce89)"><path fill="#1800ad" d="M 136.855469 46.382812 C 125.027344 46.226562 111.636719 49.363281 100.707031 59.699219 C 87.8125 71.890625 78.925781 93.636719 80.730469 114.753906 C 82.554688 136.136719 95.222656 156.09375 113.554688 174.867188 C 131.898438 193.65625 156.695312 212.03125 180.929688 230.007812 C 182.015625 230.8125 183.296875 231.226562 184.589844 231.246094 C 185.792969 231.261719 187.003906 230.929688 188.066406 230.25 L 188.09375 230.230469 C 189.753906 229.152344 191.449219 228.054688 199.710938 222.839844 C 199.710938 222.839844 199.734375 222.820312 199.753906 222.808594 L 200.050781 222.621094 C 208.429688 217.332031 223.449219 207.847656 238.300781 196.089844 C 253.320312 184.199219 268.546875 169.691406 279.167969 151.054688 C 289.636719 132.683594 295.941406 109.6875 291.640625 90.652344 C 287.273438 71.328125 272.289062 57.308594 256.207031 51.625 C 250.445312 49.585938 244.535156 48.609375 238.777344 48.53125 C 228.324219 48.394531 218.203125 51.230469 210.171875 56.304688 C 201.320312 61.898438 195.351562 70.054688 190.523438 78.25 C 186.921875 72.492188 182.765625 66.765625 177.449219 61.871094 C 169.023438 54.121094 157.921875 48.621094 144.328125 46.90625 C 141.921875 46.601562 139.417969 46.414062 136.855469 46.382812 Z M 136.691406 58.941406 C 138.75 58.96875 140.78125 59.121094 142.753906 59.367188 C 153.785156 60.761719 162.457031 65.144531 168.941406 71.117188 C 175.5625 77.207031 180.136719 85.105469 185.246094 94.035156 C 186.351562 95.96875 188.398438 97.167969 190.617188 97.195312 C 190.671875 97.195312 190.726562 97.195312 190.785156 97.195312 C 193.066406 97.164062 195.152344 95.894531 196.234375 93.882812 C 202.425781 82.339844 207.757812 72.6875 216.882812 66.925781 C 222.742188 63.21875 230.449219 60.988281 238.613281 61.09375 C 243.070312 61.152344 247.613281 61.90625 252.019531 63.464844 C 264.644531 67.929688 276.105469 78.902344 279.386719 93.421875 C 282.734375 108.234375 277.886719 127.9375 268.253906 144.835938 C 258.773438 161.472656 244.953125 174.804688 230.503906 186.242188 C 216.234375 197.539062 201.722656 206.710938 193.34375 212 L 193.046875 212.1875 C 193.011719 212.210938 192.964844 212.242188 192.964844 212.242188 C 189.046875 214.714844 186.601562 216.265625 184.925781 217.335938 C 161.6875 200.082031 139.210938 183.167969 122.542969 166.09375 C 105.027344 148.15625 94.707031 130.8125 93.246094 113.6875 C 91.761719 96.296875 99.285156 78.332031 109.335938 68.828125 C 117.265625 61.332031 127.148438 58.816406 136.691406 58.941406 Z M 136.691406 58.941406 " fill-opacity="1" fill-rule="nonzero"/></g><path fill="#1800ad" d="M 116.398438 113.355469 C 112.929688 113.3125 110.082031 116.085938 110.039062 119.554688 C 110.03125 119.972656 110.066406 120.390625 110.144531 120.800781 C 111.527344 128.121094 113.054688 136.421875 118.535156 145.636719 C 123.835938 154.550781 132.671875 164.058594 139.398438 170.058594 C 146.386719 176.292969 151.453125 179.046875 156.160156 181.609375 C 157.089844 182.113281 158.089844 182.359375 159.074219 182.371094 C 161.332031 182.402344 163.527344 181.210938 164.679688 179.09375 C 166.335938 176.042969 165.210938 172.230469 162.164062 170.574219 C 157.738281 168.167969 153.671875 165.957031 147.757812 160.683594 C 141.582031 155.175781 133.746094 146.636719 129.332031 139.214844 C 125.132812 132.15625 123.886719 125.886719 122.527344 118.664062 C 122.0625 115.691406 119.507812 113.398438 116.398438 113.355469 Z M 116.398438 113.355469 " fill-opacity="1" fill-rule="nonzero"/><path fill="#1800ad" d="M 197.351562 321.738281 L 197.144531 318.339844 L 197.167969 318.59375 C 194.980469 297.074219 191.992188 271.417969 203.3125 255.765625 C 210.648438 245.625 223.464844 240.382812 233.851562 235.972656 C 240.152344 233.300781 245.828125 230.875 250.566406 227.886719 C 258.527344 222.863281 264.195312 216.003906 269.585938 209.40625 C 272.738281 205.554688 276.109375 201.382812 279.71875 198.457031 C 284.734375 194.386719 290.152344 192.664062 295.324219 192.664062 C 300.464844 192.664062 305.058594 194.355469 308.582031 196.609375 C 317.226562 202.140625 319.320312 211.242188 311.664062 223.210938 C 311.371094 223.667969 311.058594 224.136719 310.738281 224.605469 C 303.042969 235.835938 285.667969 252.257812 269.230469 267.84375 C 266.714844 270.230469 262.738281 270.125 260.351562 267.605469 C 257.964844 265.089844 258.070312 261.113281 260.585938 258.726562 C 277.578125 242.617188 293.632812 227.34375 300.375 217.503906 C 300.628906 217.136719 300.863281 216.78125 301.082031 216.4375 C 305.859375 208.972656 303.355469 208.179688 301.808594 207.191406 C 299.988281 206.027344 297.707031 205.226562 295.324219 205.226562 C 293.074219 205.226562 290.441406 205.929688 287.632812 208.210938 C 285.234375 210.15625 282.734375 213.171875 279.3125 217.355469 C 274.035156 223.8125 267.195312 232.25 257.269531 238.511719 C 251.511719 242.140625 244.84375 244.957031 238.757812 247.539062 C 227.414062 252.351562 218.371094 256.386719 213.492188 263.128906 C 205.640625 273.984375 207.25 293.585938 209.664062 317.324219 C 209.671875 317.410156 209.679688 317.492188 209.683594 317.578125 L 209.890625 320.976562 C 210.101562 324.4375 207.46875 327.414062 204.003906 327.625 C 200.542969 327.835938 197.5625 325.203125 197.351562 321.738281 Z M 197.351562 321.738281 " fill-opacity="1" fill-rule="nonzero"/><path fill="#1800ad" d="M 173.355469 321.425781 L 173.652344 318.035156 L 173.625 318.285156 C 176.375 296.828125 180.035156 271.261719 169.125 255.316406 C 162.054688 244.988281 149.382812 239.414062 139.113281 234.734375 C 132.886719 231.898438 127.273438 229.324219 122.617188 226.214844 C 114.789062 220.984375 109.304688 213.976562 104.085938 207.242188 C 101.039062 203.304688 97.777344 199.050781 94.246094 196.03125 C 89.335938 191.828125 83.964844 189.96875 78.796875 189.832031 C 73.660156 189.699219 69.019531 191.269531 65.441406 193.429688 C 56.652344 198.734375 54.320312 207.773438 61.664062 219.941406 L 61.664062 219.9375 C 61.945312 220.40625 62.242188 220.878906 62.550781 221.359375 C 69.953125 232.789062 86.890625 249.65625 102.914062 265.667969 C 105.367188 268.117188 109.34375 268.117188 111.796875 265.664062 C 114.25 263.207031 114.246094 259.230469 111.792969 256.78125 C 95.230469 240.230469 79.578125 224.542969 73.097656 214.53125 C 72.855469 214.160156 72.628906 213.796875 72.417969 213.449219 C 67.835938 205.859375 70.363281 205.132812 71.933594 204.183594 C 73.78125 203.066406 76.082031 202.328125 78.46875 202.390625 C 80.714844 202.449219 83.328125 203.222656 86.078125 205.574219 C 88.425781 207.582031 90.847656 210.664062 94.15625 214.933594 C 99.261719 221.527344 105.878906 230.140625 115.640625 236.660156 C 121.296875 240.4375 127.890625 243.425781 133.90625 246.167969 C 145.121094 251.277344 154.058594 255.542969 158.757812 262.414062 C 166.324219 273.46875 164.199219 293.023438 161.164062 316.691406 C 161.15625 316.773438 161.144531 316.859375 161.136719 316.941406 L 160.84375 320.335938 C 160.542969 323.789062 163.097656 326.835938 166.554688 327.136719 C 170.007812 327.4375 173.054688 324.882812 173.355469 321.425781 Z M 173.355469 321.425781 " fill-opacity="1" fill-rule="nonzero"/><g clip-path="url(#e51fdf3f34)"><path fill="#1800ad" d="M 212.738281 321.6875 L 206.539062 315.40625 L 257.324219 316.070312 L 251.085938 321.101562 C 252.949219 311.914062 255.089844 300.796875 265.660156 291.089844 C 270.527344 286.621094 277.113281 282.546875 283.363281 278.65625 C 290.195312 274.402344 296.945312 270.183594 302.628906 265.25 C 313.613281 255.71875 321.074219 243.074219 327.234375 230.914062 C 333.324219 218.894531 337.71875 208.230469 341.210938 194.789062 C 344.78125 181.058594 347.269531 164.976562 346.546875 154.488281 C 345.78125 143.347656 342.144531 142.660156 341.246094 142.652344 C 341.238281 142.652344 341.21875 142.648438 341.207031 142.648438 C 337.859375 142.648438 331.15625 146.566406 327.972656 153.398438 C 325.808594 158.042969 325.378906 163.894531 324.945312 171.234375 C 324.773438 174.148438 324.59375 177.289062 324.21875 180.34375 C 322.949219 190.773438 319.535156 199.75 316.433594 207.976562 C 315.207031 211.222656 311.585938 212.859375 308.339844 211.636719 C 305.09375 210.410156 303.457031 206.789062 304.679688 203.542969 C 307.839844 195.164062 310.6875 187.535156 311.75 178.824219 C 312.066406 176.226562 312.230469 173.488281 312.40625 170.496094 C 312.804688 163.742188 313.21875 155.320312 316.585938 148.09375 C 321.210938 138.160156 331.667969 130.089844 341.207031 130.089844 C 341.257812 130.089844 341.316406 130.089844 341.367188 130.089844 C 353.378906 130.203125 358.265625 141.789062 359.078125 153.628906 C 359.9375 166.125 357.0625 183.746094 353.371094 197.949219 C 349.601562 212.453125 344.835938 223.96875 338.4375 236.59375 C 332.113281 249.078125 323.761719 263.542969 310.863281 274.734375 C 304.296875 280.433594 296.675781 285.164062 290.003906 289.320312 C 283.433594 293.410156 277.980469 296.832031 274.15625 300.34375 C 266.875 307.027344 265.273438 314.351562 263.394531 323.601562 C 262.796875 326.558594 260.175781 328.671875 257.160156 328.632812 L 206.375 327.96875 C 202.9375 327.921875 200.175781 325.125 200.175781 321.6875 C 200.175781 318.21875 202.988281 315.40625 206.457031 315.40625 C 209.925781 315.40625 212.738281 318.21875 212.738281 321.6875 Z M 212.738281 321.6875 " fill-opacity="1" fill-rule="nonzero"/></g><g clip-path="url(#73c6b2f64c)"><path fill="#1800ad" d="M 157.976562 320.972656 L 164.339844 314.855469 L 113.554688 314.191406 L 119.660156 319.382812 C 118.035156 310.148438 116.1875 298.980469 105.875 289 C 101.125 284.40625 94.652344 280.160156 88.503906 276.105469 C 81.785156 271.675781 75.148438 267.28125 69.59375 262.199219 C 58.863281 252.382812 51.738281 239.550781 45.898438 227.234375 C 40.125 215.058594 36.007812 204.28125 32.867188 190.757812 C 29.660156 176.933594 27.59375 160.796875 28.589844 150.332031 C 29.644531 139.210938 33.296875 138.617188 34.199219 138.632812 C 34.207031 138.632812 34.226562 138.632812 34.234375 138.632812 C 37.582031 138.722656 44.183594 142.808594 47.1875 149.722656 C 49.230469 154.425781 49.503906 160.285156 49.742188 167.632812 C 49.839844 170.554688 49.941406 173.695312 50.234375 176.757812 C 51.230469 187.21875 54.410156 196.28125 57.292969 204.585938 C 58.433594 207.863281 62.011719 209.59375 65.289062 208.457031 C 68.566406 207.316406 70.296875 203.738281 69.160156 200.460938 C 66.21875 192 63.570312 184.304688 62.738281 175.566406 C 62.488281 172.960938 62.398438 170.21875 62.300781 167.222656 C 62.078125 160.460938 61.886719 152.03125 58.707031 144.71875 C 54.34375 134.667969 44.101562 126.328125 34.566406 126.078125 C 34.515625 126.074219 34.457031 126.074219 34.40625 126.074219 C 22.394531 125.875 17.207031 137.324219 16.082031 149.140625 C 14.898438 161.609375 17.3125 179.300781 20.632812 193.597656 C 24.019531 208.195312 28.484375 219.832031 34.546875 232.617188 C 40.542969 245.265625 48.515625 259.945312 61.113281 271.46875 C 67.527344 277.335938 75.023438 282.261719 81.585938 286.59375 C 88.046875 290.855469 93.410156 294.417969 97.140625 298.027344 C 104.242188 304.902344 105.652344 312.261719 107.289062 321.558594 C 107.8125 324.53125 110.375 326.710938 113.390625 326.75 L 164.175781 327.414062 C 167.609375 327.460938 170.445312 324.734375 170.535156 321.300781 C 170.625 317.832031 167.886719 314.945312 164.421875 314.855469 C 160.953125 314.765625 158.070312 317.503906 157.976562 320.972656 Z M 157.976562 320.972656 " fill-opacity="1" fill-rule="nonzero"/></g><g clip-path="url(#630d537d4d)"><path fill="#1800ad" d="M 341.425781 130.089844 C 341.40625 130.089844 341.386719 130.089844 341.367188 130.089844 C 331.769531 129.996094 321.230469 138.121094 316.585938 148.09375 C 313.21875 155.320312 312.804688 163.742188 312.40625 170.496094 C 312.230469 173.488281 312.066406 176.226562 311.75 178.824219 C 311.015625 184.847656 309.429688 190.351562 307.472656 195.941406 C 304.191406 194.070312 300.125 192.726562 295.628906 192.667969 C 290.371094 192.597656 284.835938 194.300781 279.71875 198.457031 C 276.109375 201.382812 272.738281 205.554688 269.585938 209.40625 C 264.195312 216.003906 258.527344 222.863281 250.566406 227.886719 C 245.832031 230.875 240.152344 233.300781 233.851562 235.972656 C 223.464844 240.382812 210.648438 245.625 203.3125 255.765625 C 192.003906 271.398438 194.972656 297.003906 197.15625 318.5 L 197.351562 321.738281 C 197.554688 325.042969 200.277344 327.59375 203.535156 327.636719 C 203.691406 327.640625 203.847656 327.636719 204.003906 327.628906 C 204.113281 327.621094 204.226562 327.609375 204.332031 327.597656 C 204.984375 327.832031 205.671875 327.957031 206.375 327.96875 L 257.160156 328.632812 C 260.175781 328.671875 262.796875 326.558594 263.394531 323.601562 C 265.273438 314.351562 266.875 307.027344 274.15625 300.34375 C 277.980469 296.832031 283.433594 293.410156 290.003906 289.320312 C 296.675781 285.164062 304.296875 280.433594 310.863281 274.734375 C 323.761719 263.542969 332.113281 249.078125 338.4375 236.59375 C 344.835938 223.96875 349.601562 212.453125 353.371094 197.949219 C 357.0625 183.746094 359.9375 166.125 359.078125 153.628906 C 358.292969 142.199219 353.78125 131.027344 342.484375 130.136719 C 342.132812 130.109375 341.777344 130.09375 341.425781 130.089844 Z M 341.261719 142.652344 C 341.34375 142.652344 341.425781 142.65625 341.496094 142.660156 C 342.34375 142.726562 345.808594 143.757812 346.546875 154.488281 C 347.269531 164.976562 344.78125 181.054688 341.210938 194.789062 C 337.71875 208.230469 333.324219 218.894531 327.234375 230.914062 C 321.074219 243.074219 313.613281 255.71875 302.628906 265.25 C 296.945312 270.183594 290.195312 274.402344 283.363281 278.65625 C 277.109375 282.546875 270.527344 286.621094 265.660156 291.089844 C 256.980469 299.058594 253.988281 307.980469 252.160156 316.003906 L 209.472656 315.445312 C 207.171875 292.550781 205.847656 273.691406 213.492188 263.128906 C 218.371094 256.386719 227.414062 252.351562 238.757812 247.539062 C 244.847656 244.957031 251.511719 242.144531 257.269531 238.511719 C 267.195312 232.25 274.035156 223.8125 279.3125 217.355469 C 282.730469 213.171875 285.234375 210.15625 287.632812 208.210938 C 290.496094 205.886719 293.179688 205.199219 295.464844 205.226562 C 297.800781 205.257812 300.027344 206.050781 301.808594 207.191406 C 303.355469 208.179688 305.859375 208.972656 301.082031 216.4375 C 300.863281 216.78125 300.625 217.136719 300.375 217.503906 C 293.632812 227.34375 277.578125 242.617188 260.585938 258.726562 C 258.070312 261.113281 257.964844 265.089844 260.351562 267.605469 C 261.566406 268.886719 263.191406 269.542969 264.828125 269.566406 C 266.40625 269.585938 267.992188 269.015625 269.230469 267.84375 C 285.667969 252.257812 303.042969 235.835938 310.738281 224.605469 C 311.0625 224.132812 311.371094 223.667969 311.664062 223.210938 C 315.28125 217.554688 316.722656 212.542969 316.324219 208.246094 C 316.363281 208.15625 316.398438 208.066406 316.433594 207.976562 C 319.535156 199.75 322.949219 190.773438 324.21875 180.34375 C 324.59375 177.289062 324.773438 174.152344 324.945312 171.234375 C 325.378906 163.894531 325.808594 158.042969 327.972656 153.398438 C 331.175781 146.515625 337.933594 142.617188 341.246094 142.652344 Z M 341.261719 142.652344 " fill-opacity="1" fill-rule="nonzero"/></g><g clip-path="url(#db9ef9cc49)"><path fill="#1800ad" d="M 34.347656 126.070312 C 33.996094 126.066406 33.640625 126.074219 33.289062 126.09375 C 21.972656 126.683594 17.167969 137.734375 16.085938 149.140625 C 14.898438 161.609375 17.3125 179.300781 20.632812 193.597656 C 24.019531 208.191406 28.484375 219.828125 34.546875 232.617188 C 40.542969 245.265625 48.515625 259.941406 61.113281 271.46875 C 67.527344 277.335938 75.023438 282.261719 81.585938 286.589844 C 88.046875 290.851562 93.410156 294.417969 97.140625 298.027344 C 104.242188 304.902344 105.652344 312.261719 107.289062 321.558594 C 107.8125 324.53125 110.375 326.710938 113.390625 326.75 L 164.175781 327.414062 C 164.878906 327.425781 165.570312 327.316406 166.226562 327.101562 C 166.335938 327.113281 166.445312 327.128906 166.554688 327.136719 C 166.710938 327.152344 166.867188 327.160156 167.023438 327.160156 C 170.28125 327.203125 173.070312 324.722656 173.355469 321.425781 L 173.636719 318.195312 C 176.382812 296.761719 180.019531 271.242188 169.125 255.316406 C 162.054688 244.988281 149.382812 239.414062 139.113281 234.734375 C 132.886719 231.898438 127.273438 229.324219 122.617188 226.210938 C 114.789062 220.984375 109.304688 213.976562 104.085938 207.238281 C 101.039062 203.304688 97.777344 199.050781 94.246094 196.027344 C 89.234375 191.742188 83.746094 189.894531 78.492188 189.824219 C 73.996094 189.765625 69.894531 191.007812 66.5625 192.789062 C 64.757812 187.148438 63.3125 181.605469 62.738281 175.566406 C 62.488281 172.960938 62.398438 170.21875 62.300781 167.222656 C 62.078125 160.460938 61.886719 152.03125 58.707031 144.71875 C 54.324219 134.628906 44 126.230469 34.40625 126.074219 C 34.386719 126.074219 34.367188 126.070312 34.347656 126.070312 Z M 34.183594 138.632812 L 34.199219 138.632812 C 37.511719 138.6875 44.164062 142.761719 47.1875 149.722656 C 49.230469 154.425781 49.503906 160.285156 49.746094 167.632812 C 49.839844 170.554688 49.941406 173.691406 50.234375 176.757812 C 51.230469 187.21875 54.410156 196.28125 57.292969 204.585938 C 57.328125 204.679688 57.359375 204.769531 57.398438 204.863281 C 56.886719 209.148438 58.195312 214.195312 61.664062 219.9375 C 61.945312 220.40625 62.242188 220.878906 62.550781 221.355469 C 69.953125 232.789062 86.890625 249.65625 102.914062 265.664062 C 104.121094 266.871094 105.691406 267.480469 107.269531 267.503906 C 108.90625 267.523438 110.550781 266.910156 111.796875 265.660156 C 114.25 263.207031 114.246094 259.230469 111.792969 256.78125 C 95.230469 240.230469 79.578125 224.542969 73.097656 214.53125 C 72.855469 214.15625 72.628906 213.792969 72.417969 213.445312 C 67.835938 205.859375 70.363281 205.128906 71.933594 204.183594 C 73.746094 203.089844 75.992188 202.355469 78.328125 202.386719 C 80.613281 202.414062 83.277344 203.175781 86.078125 205.574219 C 88.421875 207.578125 90.847656 210.664062 94.15625 214.933594 C 99.261719 221.523438 105.878906 230.136719 115.640625 236.65625 C 121.296875 240.4375 127.890625 243.425781 133.90625 246.164062 C 145.121094 251.273438 154.058594 255.542969 158.757812 262.410156 C 166.121094 273.171875 164.304688 291.988281 161.40625 314.816406 L 118.722656 314.257812 C 117.101562 306.1875 114.339844 297.191406 105.875 289 C 101.125 284.402344 94.652344 280.160156 88.503906 276.105469 C 81.785156 271.675781 75.148438 267.28125 69.59375 262.199219 C 58.863281 252.382812 51.738281 239.550781 45.898438 227.234375 C 40.125 215.058594 36.007812 204.28125 32.867188 190.753906 C 29.660156 176.933594 27.59375 160.796875 28.589844 150.328125 C 29.609375 139.621094 33.097656 138.679688 33.945312 138.636719 C 34.019531 138.632812 34.097656 138.632812 34.183594 138.632812 Z M 34.183594 138.632812 " fill-opacity="1" fill-rule="nonzero"/></g></svg>