<svg xmlns="http://www.w3.org/2000/svg" xmlns:xlink="http://www.w3.org/1999/xlink" width="500" zoomAndPan="magnify" viewBox="0 0 375 374.999991" height="500" preserveAspectRatio="xMidYMid meet" version="1.0"><defs><clipPath id="b83a104bc7"><path d="M 42.007812 106 L 333 106 L 333 348.789062 L 42.007812 348.789062 Z M 42.007812 106 " clip-rule="nonzero"/></clipPath><clipPath id="47bb7e543f"><path d="M 99 26.289062 L 182 26.289062 L 182 111 L 99 111 Z M 99 26.289062 " clip-rule="nonzero"/></clipPath><clipPath id="d9b6ddd7c7"><path d="M 193 26.289062 L 277 26.289062 L 277 111 L 193 111 Z M 193 26.289062 " clip-rule="nonzero"/></clipPath></defs><g clip-path="url(#b83a104bc7)"><path fill="#1800ad" d="M 260.566406 121.238281 L 266.921875 121.238281 C 270.378906 121.238281 273.695312 122.714844 275.886719 126.613281 L 321.492188 206.988281 C 322.730469 209.140625 322.660156 210.5625 322.214844 211.828125 C 321.773438 213.085938 320.722656 214.300781 319.203125 215.074219 C 316.191406 216.613281 311.960938 216.753906 308.15625 211.359375 L 277.542969 168.085938 C 274.417969 163.652344 267.476562 166.527344 268.363281 171.847656 L 276.792969 224.039062 L 288.75 333.863281 C 288.960938 335.703125 288.613281 336.152344 287.375 337.035156 C 286.136719 337.902344 283.679688 338.648438 280.949219 338.628906 C 278.191406 338.605469 275.25 337.878906 273.128906 336.667969 C 271.027344 335.453125 269.8125 334 269.367188 332.136719 C 263.902344 309.203125 257.339844 281.789062 252.550781 260.980469 C 252.0625 258.929688 251.480469 256.824219 249.894531 255.167969 C 248.328125 253.488281 245.875 252.265625 243.3125 252.265625 C 240.765625 252.265625 238.289062 253.4375 236.726562 255.117188 C 235.160156 256.800781 234.320312 258.878906 234.089844 260.980469 L 225.609375 332.738281 C 225.394531 334.5625 224.535156 335.726562 222.664062 336.875 C 220.800781 338.019531 217.949219 338.738281 215.191406 338.761719 C 212.414062 338.761719 209.773438 338.039062 208.304688 337.035156 C 206.8125 336.03125 206.316406 335.332031 206.390625 333.484375 L 209.847656 232.027344 C 209.867188 231.796875 209.867188 231.585938 209.847656 231.347656 L 202.214844 150.734375 C 202.023438 148.726562 200.695312 147.046875 198.804688 146.394531 L 186.894531 142.257812 C 189.652344 137.84375 195.089844 134.4375 199.292969 131.957031 C 203.261719 129.675781 207.511719 127.921875 210.925781 126.636719 C 213.585938 125.632812 216.480469 125.1875 219 125.703125 C 224.164062 126.75 229.328125 128.289062 234.835938 128.289062 C 244.222656 128.289062 252.859375 125.375 260.566406 121.238281 Z M 184.089844 116.480469 C 186.027344 116.410156 188.058594 116.457031 190.136719 116.621094 C 193.566406 116.875 197.328125 119.074219 200.953125 120.078125 C 198.6875 121.128906 196.46875 121.851562 194.203125 123.160156 C 189.671875 125.777344 185.117188 128.625 181.757812 132.21875 C 178.113281 136.144531 174.472656 140.203125 174.003906 144.808594 L 165.578125 232.023438 L 169.054688 333.480469 C 169.097656 335.328125 168.609375 336.027344 167.136719 337.03125 C 165.644531 338.035156 163.03125 338.757812 160.25 338.757812 C 157.46875 338.734375 154.640625 338.007812 152.777344 336.871094 C 150.890625 335.722656 150.019531 334.558594 149.8125 332.730469 L 141.363281 260.972656 C 141.105469 258.875 140.285156 256.796875 138.703125 255.113281 C 137.136719 253.433594 134.664062 252.261719 132.117188 252.261719 C 129.570312 252.261719 127.09375 253.480469 125.53125 255.164062 C 123.96875 256.816406 123.359375 258.925781 122.894531 260.972656 L 106.078125 332.132812 C 105.632812 333.996094 104.421875 335.449219 102.296875 336.664062 C 100.195312 337.878906 97.226562 338.601562 94.496094 338.625 C 91.738281 338.644531 89.3125 337.902344 88.074219 337.03125 C 86.839844 336.148438 86.460938 335.699219 86.671875 333.855469 L 98.628906 224.035156 L 107.0625 171.84375 C 107.972656 166.519531 101.015625 163.648438 97.882812 168.082031 L 67.269531 211.355469 C 63.484375 216.75 59.257812 216.609375 56.226562 215.066406 C 54.707031 214.296875 53.65625 213.082031 53.210938 211.820312 C 52.769531 210.5625 52.722656 209.136719 53.933594 206.984375 L 99.539062 126.613281 C 101.757812 122.71875 105.050781 121.238281 108.527344 121.238281 L 114.878906 121.238281 C 122.585938 125.375 131.230469 128.289062 140.589844 128.289062 C 150.957031 128.289062 160.671875 125.328125 168.839844 120.539062 C 172.980469 118.136719 178.207031 116.753906 184.089844 116.480469 Z M 187.152344 106.105469 C 178.554688 105.96875 170.476562 107.808594 163.730469 111.777344 C 156.980469 115.726562 149.019531 118.132812 140.589844 118.132812 C 132.140625 118.132812 124.128906 115.796875 117.523438 111.800781 C 116.730469 111.3125 115.816406 111.050781 114.882812 111.078125 L 108.535156 111.078125 C 101.757812 111.078125 94.683594 114.558594 90.710938 121.566406 L 45.101562 201.960938 C 42.625 206.308594 42.210938 211.144531 43.609375 215.15625 C 45.011719 219.175781 48.003906 222.28125 51.621094 224.125 C 58.882812 227.820312 69.320312 226.09375 75.582031 217.214844 L 93.515625 191.855469 L 88.5625 222.542969 L 76.585938 332.757812 C 76.023438 337.921875 78.542969 342.730469 82.160156 345.300781 C 85.808594 347.894531 90.175781 348.851562 94.566406 348.828125 C 98.957031 348.777344 103.414062 347.730469 107.359375 345.460938 C 111.285156 343.195312 114.789062 339.484375 115.953125 334.484375 L 131.855469 267.144531 L 139.699219 333.929688 C 140.308594 339.089844 143.601562 343.167969 147.476562 345.53125 C 151.332031 347.914062 155.816406 348.941406 160.25 348.941406 C 164.664062 348.941406 169.097656 347.933594 172.816406 345.4375 C 176.550781 342.921875 179.398438 338.339844 179.214844 333.136719 L 175.730469 232.019531 L 183.550781 151.902344 L 192.378906 154.9375 L 199.691406 231.976562 L 196.210938 333.136719 C 196.046875 338.339844 198.898438 342.921875 202.609375 345.4375 C 206.34375 347.933594 210.757812 348.941406 215.195312 348.941406 C 219.613281 348.941406 224.09375 347.914062 227.96875 345.53125 C 231.824219 343.167969 235.136719 339.089844 235.746094 333.929688 L 243.617188 267.191406 L 259.5 334.484375 C 260.6875 339.484375 264.144531 343.195312 268.089844 345.460938 C 272.015625 347.722656 276.496094 348.777344 280.890625 348.828125 C 285.28125 348.851562 289.648438 347.894531 293.265625 345.300781 C 296.882812 342.730469 299.429688 337.921875 298.867188 332.757812 L 286.910156 222.824219 L 281.917969 191.855469 L 299.851562 217.214844 C 306.128906 226.09375 316.566406 227.820312 323.808594 224.125 C 327.429688 222.28125 330.421875 219.175781 331.820312 215.15625 C 333.222656 211.144531 332.800781 206.3125 330.324219 201.960938 L 284.710938 121.566406 C 280.765625 114.558594 273.695312 111.078125 266.921875 111.078125 L 260.566406 111.078125 C 259.636719 111.054688 258.703125 111.3125 257.910156 111.800781 C 251.324219 115.796875 243.316406 118.132812 234.84375 118.132812 C 229.492188 117.847656 223.933594 117.664062 219.777344 115.707031 C 209.96875 111.078125 200.351562 107.039062 190.867188 106.273438 C 189.605469 106.179688 188.367188 106.105469 187.152344 106.105469 Z M 187.152344 106.105469 " fill-opacity="1" fill-rule="evenodd"/></g><g clip-path="url(#47bb7e543f)"><path fill="#1800ad" d="M 140.589844 36.550781 C 158.242188 36.550781 171.582031 48.386719 171.582031 62.253906 L 171.582031 74.867188 C 171.582031 88.734375 158.242188 100.617188 140.589844 100.617188 C 122.9375 100.617188 109.601562 88.734375 109.601562 74.867188 L 109.601562 62.253906 C 109.601562 48.386719 122.933594 36.550781 140.589844 36.550781 Z M 140.589844 26.386719 C 118.265625 26.386719 99.445312 42.011719 99.445312 62.253906 L 99.445312 74.867188 C 99.445312 95.132812 118.273438 110.773438 140.589844 110.773438 C 162.886719 110.773438 181.734375 95.132812 181.734375 74.867188 L 181.734375 62.253906 C 181.734375 42.011719 162.886719 26.386719 140.589844 26.386719 Z M 140.589844 26.386719 " fill-opacity="1" fill-rule="evenodd"/></g><g clip-path="url(#d9b6ddd7c7)"><path fill="#1800ad" d="M 234.835938 36.550781 C 252.488281 36.550781 265.824219 48.386719 265.824219 62.253906 L 265.824219 74.867188 C 265.824219 88.734375 252.492188 100.617188 234.835938 100.617188 C 217.203125 100.617188 203.871094 88.734375 203.871094 74.867188 L 203.871094 62.253906 C 203.871094 48.386719 217.203125 36.550781 234.835938 36.550781 Z M 234.835938 26.386719 C 212.53125 26.386719 193.714844 42.011719 193.714844 62.253906 L 193.714844 74.867188 C 193.714844 95.132812 212.53125 110.773438 234.835938 110.773438 C 257.160156 110.773438 276.027344 95.132812 276.027344 74.867188 L 276.027344 62.253906 C 276.027344 42.011719 257.160156 26.386719 234.835938 26.386719 Z M 234.835938 26.386719 " fill-opacity="1" fill-rule="evenodd"/></g></svg>