<svg xmlns="http://www.w3.org/2000/svg" xmlns:xlink="http://www.w3.org/1999/xlink" width="500" zoomAndPan="magnify" viewBox="0 0 375 374.999991" height="500" preserveAspectRatio="xMidYMid meet" version="1.0"><defs><clipPath id="e78c7bc2bd"><path d="M 99 11.21875 L 276 11.21875 L 276 189 L 99 189 Z M 99 11.21875 " clip-rule="nonzero"/></clipPath><clipPath id="f1ad86290b"><path d="M 45.152344 202 L 330 202 L 330 363.71875 L 45.152344 363.71875 Z M 45.152344 202 " clip-rule="nonzero"/></clipPath><clipPath id="8f96bbad4e"><path d="M 99 11.21875 L 276 11.21875 L 276 189 L 99 189 Z M 99 11.21875 " clip-rule="nonzero"/></clipPath><clipPath id="636777e8bb"><path d="M 45.152344 202 L 330 202 L 330 363.71875 L 45.152344 363.71875 Z M 45.152344 202 " clip-rule="nonzero"/></clipPath></defs><g clip-path="url(#e78c7bc2bd)"><path fill="#1800ad" d="M 187.476562 188.046875 C 188.921875 188.046875 190.371094 188.011719 191.816406 187.941406 C 193.261719 187.867188 194.703125 187.761719 196.144531 187.621094 C 197.585938 187.476562 199.019531 187.300781 200.453125 187.089844 C 201.886719 186.875 203.3125 186.628906 204.730469 186.347656 C 206.152344 186.0625 207.5625 185.746094 208.964844 185.394531 C 210.371094 185.042969 211.765625 184.65625 213.152344 184.238281 C 214.535156 183.816406 215.910156 183.363281 217.273438 182.875 C 218.636719 182.386719 219.984375 181.867188 221.324219 181.3125 C 222.660156 180.757812 223.984375 180.171875 225.292969 179.554688 C 226.601562 178.933594 227.894531 178.285156 229.167969 177.601562 C 230.445312 176.917969 231.707031 176.207031 232.945312 175.460938 C 234.1875 174.71875 235.410156 173.945312 236.613281 173.140625 C 237.820312 172.335938 239 171.503906 240.164062 170.640625 C 241.328125 169.777344 242.46875 168.886719 243.585938 167.96875 C 244.707031 167.050781 245.800781 166.105469 246.875 165.132812 C 247.945312 164.160156 248.996094 163.164062 250.019531 162.140625 C 251.042969 161.117188 252.039062 160.066406 253.011719 158.996094 C 253.984375 157.921875 254.929688 156.828125 255.847656 155.707031 C 256.765625 154.589844 257.65625 153.449219 258.519531 152.285156 C 259.378906 151.125 260.214844 149.941406 261.019531 148.738281 C 261.820312 147.53125 262.597656 146.308594 263.339844 145.070312 C 264.085938 143.828125 264.796875 142.566406 265.480469 141.292969 C 266.164062 140.015625 266.8125 138.722656 267.433594 137.414062 C 268.050781 136.105469 268.636719 134.78125 269.191406 133.445312 C 269.746094 132.109375 270.265625 130.757812 270.753906 129.394531 C 271.242188 128.03125 271.695312 126.65625 272.117188 125.273438 C 272.535156 123.886719 272.921875 122.492188 273.273438 121.089844 C 273.625 119.683594 273.941406 118.273438 274.226562 116.851562 C 274.507812 115.433594 274.753906 114.007812 274.96875 112.574219 C 275.179688 111.144531 275.355469 109.707031 275.5 108.265625 C 275.640625 106.824219 275.746094 105.382812 275.816406 103.9375 C 275.886719 102.492188 275.925781 101.042969 275.925781 99.597656 C 275.925781 98.148438 275.886719 96.703125 275.816406 95.257812 C 275.746094 93.8125 275.640625 92.367188 275.5 90.925781 C 275.355469 89.488281 275.179688 88.050781 274.96875 86.617188 C 274.753906 85.1875 274.507812 83.761719 274.226562 82.339844 C 273.941406 80.921875 273.625 79.511719 273.273438 78.105469 C 272.921875 76.703125 272.535156 75.308594 272.117188 73.921875 C 271.695312 72.535156 271.242188 71.164062 270.753906 69.800781 C 270.265625 68.4375 269.746094 67.085938 269.191406 65.75 C 268.636719 64.410156 268.050781 63.089844 267.433594 61.78125 C 266.8125 60.472656 266.164062 59.179688 265.480469 57.902344 C 264.796875 56.625 264.085938 55.367188 263.339844 54.125 C 262.597656 52.882812 261.824219 51.660156 261.019531 50.457031 C 260.214844 49.253906 259.382812 48.070312 258.519531 46.910156 C 257.65625 45.746094 256.765625 44.605469 255.847656 43.484375 C 254.929688 42.367188 253.984375 41.269531 253.011719 40.199219 C 252.039062 39.125 251.042969 38.078125 250.019531 37.054688 C 248.996094 36.03125 247.945312 35.035156 246.875 34.0625 C 245.800781 33.089844 244.707031 32.144531 243.585938 31.226562 C 242.46875 30.308594 241.328125 29.417969 240.164062 28.554688 C 239.003906 27.691406 237.820312 26.859375 236.617188 26.054688 C 235.414062 25.25 234.191406 24.476562 232.949219 23.730469 C 231.707031 22.988281 230.449219 22.273438 229.171875 21.59375 C 227.894531 20.910156 226.601562 20.257812 225.292969 19.640625 C 223.984375 19.023438 222.660156 18.433594 221.324219 17.882812 C 219.988281 17.328125 218.636719 16.804688 217.273438 16.320312 C 215.910156 15.832031 214.535156 15.378906 213.152344 14.957031 C 211.765625 14.535156 210.371094 14.152344 208.96875 13.800781 C 207.5625 13.445312 206.152344 13.128906 204.730469 12.847656 C 203.3125 12.566406 201.886719 12.316406 200.453125 12.105469 C 199.023438 11.894531 197.585938 11.714844 196.144531 11.574219 C 194.707031 11.433594 193.261719 11.324219 191.816406 11.253906 C 190.371094 11.183594 188.925781 11.148438 187.476562 11.148438 C 186.027344 11.148438 184.582031 11.183594 183.136719 11.253906 C 181.691406 11.324219 180.246094 11.433594 178.808594 11.574219 C 177.367188 11.714844 175.929688 11.894531 174.5 12.105469 C 173.066406 12.316406 171.640625 12.566406 170.222656 12.847656 C 168.800781 13.128906 167.390625 13.445312 165.984375 13.796875 C 164.582031 14.148438 163.1875 14.535156 161.800781 14.957031 C 160.417969 15.375 159.042969 15.832031 157.679688 16.316406 C 156.316406 16.804688 154.964844 17.328125 153.628906 17.878906 C 152.292969 18.433594 150.96875 19.019531 149.660156 19.640625 C 148.351562 20.257812 147.058594 20.910156 145.78125 21.589844 C 144.503906 22.273438 143.246094 22.988281 142.003906 23.730469 C 140.761719 24.476562 139.539062 25.25 138.335938 26.054688 C 137.132812 26.859375 135.949219 27.691406 134.789062 28.554688 C 133.625 29.414062 132.484375 30.304688 131.363281 31.222656 C 130.246094 32.140625 129.148438 33.085938 128.078125 34.058594 C 127.003906 35.03125 125.957031 36.027344 124.933594 37.054688 C 123.910156 38.078125 122.910156 39.125 121.941406 40.195312 C 120.96875 41.269531 120.023438 42.363281 119.105469 43.484375 C 118.1875 44.601562 117.296875 45.742188 116.433594 46.90625 C 115.570312 48.070312 114.738281 49.253906 113.933594 50.457031 C 113.128906 51.660156 112.355469 52.882812 111.609375 54.125 C 110.867188 55.363281 110.152344 56.625 109.472656 57.902344 C 108.789062 59.175781 108.136719 60.46875 107.519531 61.777344 C 106.898438 63.085938 106.3125 64.410156 105.757812 65.746094 C 105.207031 67.085938 104.683594 68.433594 104.195312 69.796875 C 103.710938 71.160156 103.253906 72.535156 102.835938 73.917969 C 102.414062 75.304688 102.027344 76.699219 101.675781 78.105469 C 101.324219 79.507812 101.007812 80.917969 100.726562 82.339844 C 100.445312 83.757812 100.195312 85.183594 99.984375 86.617188 C 99.769531 88.046875 99.59375 89.484375 99.453125 90.925781 C 99.308594 92.367188 99.203125 93.808594 99.132812 95.253906 C 99.0625 96.699219 99.027344 98.148438 99.027344 99.59375 C 99.027344 101.042969 99.066406 102.488281 99.136719 103.933594 C 99.210938 105.378906 99.316406 106.820312 99.460938 108.261719 C 99.605469 109.703125 99.78125 111.136719 99.996094 112.566406 C 100.210938 114 100.457031 115.425781 100.742188 116.84375 C 101.023438 118.261719 101.34375 119.675781 101.695312 121.078125 C 102.046875 122.480469 102.433594 123.875 102.855469 125.257812 C 103.277344 126.644531 103.730469 128.015625 104.21875 129.378906 C 104.707031 130.742188 105.230469 132.089844 105.785156 133.429688 C 106.339844 134.765625 106.925781 136.085938 107.546875 137.394531 C 108.164062 138.703125 108.816406 139.996094 109.5 141.269531 C 110.179688 142.546875 110.894531 143.804688 111.640625 145.046875 C 112.382812 146.285156 113.15625 147.507812 113.960938 148.710938 C 114.765625 149.914062 115.601562 151.097656 116.460938 152.261719 C 117.324219 153.421875 118.214844 154.5625 119.132812 155.679688 C 120.050781 156.800781 120.996094 157.894531 121.96875 158.96875 C 122.941406 160.039062 123.9375 161.085938 124.960938 162.109375 C 125.984375 163.132812 127.03125 164.132812 128.105469 165.101562 C 129.175781 166.074219 130.269531 167.019531 131.390625 167.9375 C 132.507812 168.855469 133.648438 169.746094 134.808594 170.609375 C 135.972656 171.472656 137.15625 172.304688 138.359375 173.109375 C 139.5625 173.914062 140.78125 174.6875 142.023438 175.433594 C 143.265625 176.175781 144.523438 176.890625 145.800781 177.574219 C 147.074219 178.253906 148.367188 178.90625 149.675781 179.527344 C 150.984375 180.144531 152.304688 180.730469 153.640625 181.285156 C 154.980469 181.839844 156.328125 182.363281 157.691406 182.851562 C 159.050781 183.339844 160.425781 183.792969 161.808594 184.214844 C 163.195312 184.636719 164.589844 185.023438 165.992188 185.375 C 167.394531 185.726562 168.808594 186.046875 170.226562 186.332031 C 171.644531 186.613281 173.070312 186.863281 174.5 187.074219 C 175.933594 187.289062 177.367188 187.46875 178.808594 187.609375 C 180.25 187.753906 181.691406 187.863281 183.136719 187.933594 C 184.582031 188.007812 186.027344 188.042969 187.476562 188.046875 Z M 187.476562 26.445312 C 188.671875 26.445312 189.867188 26.472656 191.066406 26.53125 C 192.261719 26.589844 193.453125 26.679688 194.644531 26.796875 C 195.835938 26.914062 197.023438 27.0625 198.210938 27.238281 C 199.394531 27.414062 200.574219 27.617188 201.746094 27.851562 C 202.921875 28.082031 204.089844 28.347656 205.25 28.636719 C 206.410156 28.929688 207.566406 29.246094 208.710938 29.59375 C 209.855469 29.941406 210.992188 30.316406 212.121094 30.722656 C 213.246094 31.125 214.363281 31.554688 215.46875 32.011719 C 216.578125 32.472656 217.671875 32.957031 218.753906 33.46875 C 219.835938 33.980469 220.90625 34.519531 221.960938 35.082031 C 223.015625 35.648438 224.058594 36.238281 225.085938 36.851562 C 226.113281 37.46875 227.121094 38.109375 228.117188 38.773438 C 229.113281 39.4375 230.09375 40.128906 231.054688 40.839844 C 232.015625 41.554688 232.960938 42.289062 233.886719 43.050781 C 234.808594 43.808594 235.714844 44.589844 236.605469 45.394531 C 237.492188 46.199219 238.359375 47.023438 239.203125 47.871094 C 240.050781 48.71875 240.875 49.585938 241.679688 50.472656 C 242.484375 51.359375 243.265625 52.265625 244.027344 53.191406 C 244.785156 54.117188 245.523438 55.058594 246.234375 56.019531 C 246.949219 56.980469 247.636719 57.960938 248.300781 58.957031 C 248.96875 59.953125 249.609375 60.964844 250.222656 61.988281 C 250.839844 63.015625 251.429688 64.058594 251.992188 65.113281 C 252.558594 66.167969 253.097656 67.238281 253.609375 68.320312 C 254.121094 69.402344 254.605469 70.496094 255.0625 71.605469 C 255.519531 72.710938 255.953125 73.828125 256.355469 74.953125 C 256.757812 76.082031 257.132812 77.21875 257.480469 78.363281 C 257.828125 79.507812 258.148438 80.664062 258.4375 81.824219 C 258.730469 82.984375 258.992188 84.152344 259.226562 85.328125 C 259.460938 86.5 259.664062 87.679688 259.839844 88.863281 C 260.015625 90.050781 260.160156 91.238281 260.277344 92.429688 C 260.398438 93.621094 260.484375 94.8125 260.542969 96.007812 C 260.601562 97.207031 260.632812 98.402344 260.632812 99.597656 C 260.632812 100.796875 260.601562 101.992188 260.542969 103.1875 C 260.484375 104.382812 260.398438 105.578125 260.277344 106.769531 C 260.160156 107.960938 260.015625 109.148438 259.839844 110.332031 C 259.664062 111.519531 259.460938 112.695312 259.226562 113.871094 C 258.992188 115.046875 258.730469 116.214844 258.4375 117.375 C 258.148438 118.535156 257.828125 119.691406 257.480469 120.835938 C 257.132812 121.980469 256.757812 123.117188 256.355469 124.246094 C 255.953125 125.371094 255.519531 126.488281 255.0625 127.59375 C 254.605469 128.699219 254.121094 129.796875 253.609375 130.878906 C 253.097656 131.960938 252.558594 133.027344 251.992188 134.085938 C 251.429688 135.140625 250.839844 136.183594 250.222656 137.207031 C 249.609375 138.234375 248.96875 139.246094 248.300781 140.242188 C 247.636719 141.238281 246.949219 142.214844 246.234375 143.179688 C 245.523438 144.140625 244.785156 145.082031 244.027344 146.007812 C 243.265625 146.933594 242.484375 147.839844 241.679688 148.726562 C 240.875 149.613281 240.050781 150.480469 239.203125 151.328125 C 238.359375 152.175781 237.492188 153 236.605469 153.804688 C 235.714844 154.609375 234.808594 155.390625 233.886719 156.148438 C 232.960938 156.910156 232.015625 157.644531 231.054688 158.359375 C 230.09375 159.070312 229.113281 159.761719 228.117188 160.425781 C 227.121094 161.089844 226.113281 161.730469 225.085938 162.347656 C 224.058594 162.960938 223.015625 163.550781 221.960938 164.117188 C 220.90625 164.679688 219.835938 165.21875 218.753906 165.730469 C 217.671875 166.242188 216.578125 166.726562 215.46875 167.1875 C 214.363281 167.644531 213.246094 168.074219 212.121094 168.476562 C 210.992188 168.882812 209.855469 169.257812 208.710938 169.605469 C 207.566406 169.953125 206.410156 170.269531 205.25 170.5625 C 204.089844 170.851562 202.921875 171.113281 201.746094 171.347656 C 200.574219 171.582031 199.394531 171.785156 198.210938 171.960938 C 197.023438 172.136719 195.835938 172.285156 194.644531 172.402344 C 193.453125 172.519531 192.261719 172.605469 191.066406 172.664062 C 189.867188 172.722656 188.671875 172.753906 187.476562 172.753906 C 186.277344 172.753906 185.082031 172.722656 183.886719 172.664062 C 182.691406 172.605469 181.496094 172.519531 180.304688 172.402344 C 179.113281 172.285156 177.925781 172.136719 176.742188 171.960938 C 175.558594 171.785156 174.378906 171.582031 173.203125 171.347656 C 172.027344 171.113281 170.859375 170.851562 169.699219 170.558594 C 168.539062 170.269531 167.386719 169.949219 166.238281 169.601562 C 165.09375 169.253906 163.957031 168.878906 162.828125 168.476562 C 161.703125 168.074219 160.585938 167.640625 159.480469 167.183594 C 158.375 166.726562 157.28125 166.242188 156.195312 165.730469 C 155.113281 165.214844 154.046875 164.679688 152.988281 164.113281 C 151.933594 163.550781 150.894531 162.960938 149.867188 162.34375 C 148.839844 161.730469 147.828125 161.089844 146.832031 160.421875 C 145.835938 159.757812 144.859375 159.070312 143.898438 158.355469 C 142.933594 157.640625 141.992188 156.90625 141.066406 156.144531 C 140.140625 155.386719 139.234375 154.605469 138.347656 153.800781 C 137.460938 152.996094 136.59375 152.171875 135.746094 151.324219 C 134.902344 150.476562 134.074219 149.609375 133.269531 148.722656 C 132.46875 147.835938 131.6875 146.929688 130.925781 146.003906 C 130.167969 145.078125 129.429688 144.136719 128.71875 143.175781 C 128.003906 142.210938 127.316406 141.234375 126.648438 140.238281 C 125.984375 139.242188 125.34375 138.230469 124.730469 137.203125 C 124.113281 136.179688 123.523438 135.136719 122.960938 134.082031 C 122.394531 133.023438 121.855469 131.957031 121.34375 130.875 C 120.832031 129.789062 120.347656 128.695312 119.890625 127.589844 C 119.433594 126.484375 119 125.367188 118.597656 124.242188 C 118.195312 123.113281 117.820312 121.976562 117.472656 120.832031 C 117.125 119.683594 116.804688 118.53125 116.515625 117.371094 C 116.222656 116.207031 115.960938 115.042969 115.726562 113.867188 C 115.496094 112.691406 115.289062 111.511719 115.113281 110.328125 C 114.9375 109.144531 114.792969 107.957031 114.675781 106.765625 C 114.558594 105.574219 114.46875 104.378906 114.410156 103.183594 C 114.351562 101.988281 114.324219 100.792969 114.324219 99.59375 C 114.324219 98.398438 114.355469 97.203125 114.414062 96.007812 C 114.476562 94.8125 114.5625 93.617188 114.683594 92.425781 C 114.800781 91.238281 114.949219 90.050781 115.125 88.867188 C 115.300781 87.683594 115.507812 86.503906 115.742188 85.328125 C 115.976562 84.15625 116.238281 82.988281 116.53125 81.828125 C 116.824219 80.667969 117.144531 79.515625 117.492188 78.371094 C 117.839844 77.222656 118.214844 76.089844 118.621094 74.960938 C 119.023438 73.835938 119.457031 72.71875 119.914062 71.613281 C 120.371094 70.507812 120.859375 69.414062 121.371094 68.332031 C 121.882812 67.25 122.421875 66.183594 122.984375 65.128906 C 123.550781 64.074219 124.140625 63.03125 124.757812 62.003906 C 125.371094 60.980469 126.011719 59.96875 126.675781 58.972656 C 127.34375 57.980469 128.03125 57 128.746094 56.039062 C 129.457031 55.078125 130.195312 54.136719 130.953125 53.210938 C 131.714844 52.285156 132.496094 51.378906 133.296875 50.492188 C 134.101562 49.605469 134.925781 48.738281 135.773438 47.894531 C 136.621094 47.046875 137.484375 46.222656 138.371094 45.417969 C 139.257812 44.613281 140.164062 43.832031 141.089844 43.074219 C 142.015625 42.316406 142.957031 41.578125 143.917969 40.867188 C 144.882812 40.152344 145.859375 39.464844 146.855469 38.796875 C 147.847656 38.132812 148.859375 37.492188 149.886719 36.875 C 150.914062 36.261719 151.953125 35.671875 153.007812 35.105469 C 154.0625 34.542969 155.132812 34.003906 156.214844 33.492188 C 157.296875 32.980469 158.390625 32.492188 159.496094 32.035156 C 160.601562 31.578125 161.714844 31.144531 162.84375 30.742188 C 163.96875 30.335938 165.105469 29.960938 166.25 29.613281 C 167.394531 29.265625 168.546875 28.945312 169.707031 28.652344 C 170.867188 28.363281 172.035156 28.097656 173.210938 27.863281 C 174.382812 27.628906 175.5625 27.425781 176.746094 27.246094 C 177.929688 27.070312 179.117188 26.921875 180.308594 26.804688 C 181.5 26.6875 182.691406 26.597656 183.886719 26.535156 C 185.082031 26.476562 186.277344 26.445312 187.476562 26.445312 Z M 187.476562 26.445312 " fill-opacity="1" fill-rule="nonzero"/></g><g clip-path="url(#f1ad86290b)"><path fill="#1800ad" d="M 187.476562 202.140625 C 185.15625 202.144531 182.835938 202.203125 180.519531 202.320312 C 178.203125 202.4375 175.890625 202.609375 173.582031 202.839844 C 171.269531 203.070312 168.96875 203.355469 166.675781 203.695312 C 164.378906 204.039062 162.09375 204.4375 159.820312 204.894531 C 157.546875 205.347656 155.28125 205.855469 153.03125 206.421875 C 150.78125 206.988281 148.546875 207.609375 146.328125 208.285156 C 144.109375 208.957031 141.90625 209.6875 139.722656 210.46875 C 137.539062 211.253906 135.375 212.089844 133.230469 212.976562 C 131.089844 213.867188 128.96875 214.808594 126.871094 215.800781 C 124.773438 216.792969 122.703125 217.839844 120.65625 218.933594 C 118.613281 220.027344 116.59375 221.171875 114.605469 222.363281 C 112.613281 223.558594 110.65625 224.800781 108.726562 226.089844 C 106.796875 227.378906 104.902344 228.714844 103.039062 230.097656 C 101.175781 231.480469 99.347656 232.90625 97.554688 234.378906 C 95.761719 235.851562 94.003906 237.367188 92.285156 238.925781 C 90.566406 240.484375 88.886719 242.082031 87.246094 243.722656 C 85.605469 245.363281 84.007812 247.042969 82.449219 248.761719 C 80.890625 250.480469 79.375 252.238281 77.902344 254.03125 C 76.429688 255.824219 75.003906 257.652344 73.621094 259.515625 C 72.238281 261.378906 70.902344 263.273438 69.613281 265.203125 C 68.324219 267.132812 67.082031 269.089844 65.886719 271.082031 C 64.695312 273.070312 63.550781 275.085938 62.457031 277.132812 C 61.359375 279.179688 60.316406 281.25 59.324219 283.347656 C 58.332031 285.445312 57.390625 287.5625 56.5 289.707031 C 55.613281 291.851562 54.777344 294.015625 53.992188 296.199219 C 53.210938 298.382812 52.480469 300.582031 51.804688 302.804688 C 51.128906 305.023438 50.511719 307.257812 49.945312 309.507812 C 49.378906 311.757812 48.871094 314.019531 48.414062 316.296875 C 47.960938 318.570312 47.5625 320.855469 47.21875 323.152344 C 46.875 325.445312 46.589844 327.746094 46.359375 330.054688 C 46.132812 332.363281 45.957031 334.679688 45.839844 336.996094 C 45.726562 339.3125 45.667969 341.632812 45.664062 343.949219 C 45.664062 344.601562 45.695312 345.25 45.757812 345.894531 C 45.820312 346.542969 45.917969 347.183594 46.042969 347.824219 C 46.167969 348.460938 46.328125 349.089844 46.515625 349.710938 C 46.703125 350.335938 46.921875 350.945312 47.171875 351.546875 C 47.421875 352.148438 47.699219 352.734375 48.003906 353.308594 C 48.308594 353.878906 48.644531 354.4375 49.003906 354.976562 C 49.367188 355.519531 49.753906 356.039062 50.164062 356.542969 C 50.578125 357.042969 51.011719 357.523438 51.472656 357.984375 C 51.933594 358.445312 52.414062 358.878906 52.917969 359.292969 C 53.417969 359.703125 53.941406 360.089844 54.480469 360.453125 C 55.019531 360.8125 55.578125 361.148438 56.152344 361.453125 C 56.722656 361.757812 57.3125 362.035156 57.910156 362.285156 C 58.511719 362.535156 59.125 362.753906 59.746094 362.941406 C 60.367188 363.128906 60.996094 363.285156 61.636719 363.414062 C 62.273438 363.539062 62.914062 363.632812 63.5625 363.699219 C 64.207031 363.761719 64.855469 363.792969 65.507812 363.792969 L 309.429688 363.792969 C 310.96875 363.789062 312.484375 363.609375 313.980469 363.253906 C 315.476562 362.898438 316.914062 362.378906 318.289062 361.691406 C 319.664062 361.003906 320.945312 360.167969 322.128906 359.1875 C 323.3125 358.203125 324.367188 357.097656 325.292969 355.871094 C 326.589844 354.15625 327.578125 352.277344 328.261719 350.234375 C 328.941406 348.195312 329.28125 346.097656 329.277344 343.945312 C 329.273438 341.625 329.214844 339.308594 329.097656 336.992188 C 328.980469 334.675781 328.808594 332.359375 328.578125 330.050781 C 328.347656 327.742188 328.0625 325.441406 327.71875 323.148438 C 327.378906 320.851562 326.976562 318.570312 326.523438 316.292969 C 326.070312 314.019531 325.558594 311.757812 324.992188 309.507812 C 324.429688 307.257812 323.808594 305.019531 323.132812 302.800781 C 322.457031 300.582031 321.730469 298.378906 320.945312 296.195312 C 320.164062 294.011719 319.328125 291.847656 318.4375 289.707031 C 317.550781 287.5625 316.609375 285.445312 315.617188 283.347656 C 314.621094 281.25 313.578125 279.179688 312.484375 277.132812 C 311.390625 275.089844 310.246094 273.070312 309.050781 271.082031 C 307.859375 269.089844 306.617188 267.132812 305.328125 265.203125 C 304.039062 263.273438 302.703125 261.378906 301.320312 259.515625 C 299.9375 257.652344 298.511719 255.824219 297.039062 254.03125 C 295.566406 252.238281 294.050781 250.484375 292.492188 248.761719 C 290.933594 247.042969 289.335938 245.363281 287.695312 243.722656 C 286.054688 242.085938 284.375 240.484375 282.65625 238.925781 C 280.9375 237.367188 279.183594 235.851562 277.390625 234.382812 C 275.597656 232.910156 273.769531 231.480469 271.90625 230.097656 C 270.042969 228.71875 268.144531 227.382812 266.21875 226.089844 C 264.289062 224.800781 262.328125 223.5625 260.339844 222.367188 C 258.351562 221.171875 256.332031 220.03125 254.289062 218.933594 C 252.242188 217.839844 250.171875 216.796875 248.074219 215.804688 C 245.976562 214.8125 243.859375 213.871094 241.714844 212.980469 C 239.570312 212.089844 237.410156 211.253906 235.226562 210.472656 C 233.039062 209.6875 230.839844 208.960938 228.621094 208.285156 C 226.398438 207.609375 224.164062 206.988281 221.914062 206.425781 C 219.664062 205.859375 217.402344 205.347656 215.128906 204.894531 C 212.851562 204.4375 210.566406 204.039062 208.273438 203.699219 C 205.980469 203.355469 203.675781 203.070312 201.367188 202.839844 C 199.058594 202.609375 196.746094 202.4375 194.429688 202.320312 C 192.113281 202.203125 189.796875 202.144531 187.476562 202.140625 Z M 313.082031 346.6875 C 312.652344 347.261719 312.117188 347.707031 311.472656 348.023438 C 310.832031 348.339844 310.15625 348.5 309.4375 348.496094 L 65.515625 348.496094 C 64.714844 348.5 63.964844 348.304688 63.265625 347.90625 C 62.566406 347.511719 62.015625 346.96875 61.605469 346.277344 C 61.175781 345.558594 60.960938 344.785156 60.96875 343.945312 C 60.976562 341.882812 61.035156 339.816406 61.144531 337.757812 C 61.253906 335.695312 61.414062 333.636719 61.625 331.582031 C 61.835938 329.527344 62.097656 327.480469 62.40625 325.4375 C 62.71875 323.398438 63.078125 321.363281 63.488281 319.339844 C 63.898438 317.316406 64.359375 315.304688 64.867188 313.304688 C 65.378906 311.300781 65.933594 309.316406 66.539062 307.339844 C 67.148438 305.367188 67.800781 303.410156 68.503906 301.464844 C 69.207031 299.523438 69.953125 297.601562 70.75 295.695312 C 71.546875 293.789062 72.390625 291.90625 73.277344 290.042969 C 74.167969 288.179688 75.101562 286.335938 76.078125 284.519531 C 77.058594 282.699219 78.078125 280.90625 79.144531 279.140625 C 80.214844 277.371094 81.320312 275.628906 82.472656 273.917969 C 83.625 272.203125 84.820312 270.515625 86.054688 268.863281 C 87.285156 267.207031 88.5625 265.582031 89.875 263.988281 C 91.1875 262.394531 92.539062 260.835938 93.929688 259.308594 C 95.320312 257.78125 96.746094 256.289062 98.210938 254.832031 C 99.675781 253.375 101.171875 251.957031 102.703125 250.570312 C 104.238281 249.1875 105.804688 247.84375 107.402344 246.535156 C 109 245.230469 110.628906 243.960938 112.289062 242.734375 C 113.953125 241.507812 115.640625 240.320312 117.359375 239.175781 C 119.078125 238.03125 120.824219 236.929688 122.597656 235.871094 C 124.371094 234.8125 126.167969 233.796875 127.988281 232.828125 C 129.8125 231.855469 131.65625 230.929688 133.523438 230.050781 C 135.390625 229.167969 137.28125 228.335938 139.1875 227.546875 C 141.097656 226.757812 143.023438 226.015625 144.96875 225.324219 C 146.914062 224.628906 148.875 223.984375 150.851562 223.386719 C 152.828125 222.789062 154.816406 222.238281 156.820312 221.738281 C 158.824219 221.238281 160.839844 220.785156 162.863281 220.386719 C 164.890625 219.984375 166.925781 219.632812 168.964844 219.328125 C 171.007812 219.027344 173.058594 218.773438 175.113281 218.574219 C 177.167969 218.371094 179.226562 218.21875 181.289062 218.117188 C 183.351562 218.015625 185.414062 217.96875 187.480469 217.96875 C 189.546875 217.96875 191.609375 218.015625 193.671875 218.117188 C 195.734375 218.21875 197.792969 218.371094 199.847656 218.574219 C 201.902344 218.773438 203.953125 219.027344 205.996094 219.328125 C 208.039062 219.632812 210.070312 219.984375 212.097656 220.386719 C 214.121094 220.785156 216.136719 221.238281 218.140625 221.738281 C 220.144531 222.238281 222.132812 222.789062 224.109375 223.386719 C 226.085938 223.984375 228.046875 224.628906 229.992188 225.324219 C 231.9375 226.015625 233.863281 226.757812 235.773438 227.546875 C 237.679688 228.335938 239.570312 229.167969 241.4375 230.050781 C 243.304688 230.929688 245.148438 231.855469 246.972656 232.828125 C 248.792969 233.796875 250.589844 234.8125 252.363281 235.871094 C 254.136719 236.929688 255.882812 238.03125 257.601562 239.175781 C 259.320312 240.320312 261.011719 241.507812 262.671875 242.734375 C 264.332031 243.960938 265.960938 245.230469 267.558594 246.535156 C 269.160156 247.84375 270.722656 249.1875 272.257812 250.570312 C 273.789062 251.957031 275.289062 253.375 276.75 254.832031 C 278.214844 256.289062 279.640625 257.78125 281.03125 259.308594 C 282.421875 260.835938 283.773438 262.394531 285.085938 263.988281 C 286.398438 265.582031 287.675781 267.207031 288.910156 268.863281 C 290.144531 270.515625 291.335938 272.203125 292.488281 273.917969 C 293.640625 275.628906 294.75 277.371094 295.816406 279.140625 C 296.882812 280.90625 297.902344 282.699219 298.882812 284.519531 C 299.863281 286.335938 300.796875 288.179688 301.683594 290.042969 C 302.570312 291.90625 303.414062 293.789062 304.210938 295.695312 C 305.007812 297.601562 305.757812 299.523438 306.457031 301.46875 C 307.160156 303.410156 307.8125 305.367188 308.421875 307.339844 C 309.027344 309.316406 309.585938 311.300781 310.09375 313.304688 C 310.601562 315.304688 311.0625 317.316406 311.472656 319.339844 C 311.882812 321.363281 312.242188 323.398438 312.554688 325.4375 C 312.863281 327.480469 313.125 329.527344 313.335938 331.582031 C 313.546875 333.636719 313.707031 335.695312 313.816406 337.757812 C 313.925781 339.816406 313.984375 341.882812 313.992188 343.945312 C 313.992188 344.960938 313.6875 345.871094 313.074219 346.675781 Z M 313.082031 346.6875 " fill-opacity="1" fill-rule="nonzero"/></g><g clip-path="url(#8f96bbad4e)"><path fill="#1800ad" d="M 187.476562 188.046875 C 188.921875 188.046875 190.371094 188.011719 191.816406 187.941406 C 193.261719 187.867188 194.703125 187.761719 196.144531 187.621094 C 197.585938 187.476562 199.019531 187.300781 200.453125 187.089844 C 201.886719 186.875 203.3125 186.628906 204.730469 186.347656 C 206.152344 186.0625 207.5625 185.746094 208.964844 185.394531 C 210.371094 185.042969 211.765625 184.65625 213.152344 184.238281 C 214.535156 183.816406 215.910156 183.363281 217.273438 182.875 C 218.636719 182.386719 219.984375 181.867188 221.324219 181.3125 C 222.660156 180.757812 223.984375 180.171875 225.292969 179.554688 C 226.601562 178.933594 227.894531 178.285156 229.167969 177.601562 C 230.445312 176.917969 231.707031 176.207031 232.945312 175.460938 C 234.1875 174.71875 235.410156 173.945312 236.613281 173.140625 C 237.820312 172.335938 239 171.503906 240.164062 170.640625 C 241.328125 169.777344 242.46875 168.886719 243.585938 167.96875 C 244.707031 167.050781 245.800781 166.105469 246.875 165.132812 C 247.945312 164.160156 248.996094 163.164062 250.019531 162.140625 C 251.042969 161.117188 252.039062 160.066406 253.011719 158.996094 C 253.984375 157.921875 254.929688 156.828125 255.847656 155.707031 C 256.765625 154.589844 257.65625 153.449219 258.519531 152.285156 C 259.378906 151.125 260.214844 149.941406 261.019531 148.738281 C 261.820312 147.53125 262.597656 146.308594 263.339844 145.070312 C 264.085938 143.828125 264.796875 142.566406 265.480469 141.292969 C 266.164062 140.015625 266.8125 138.722656 267.433594 137.414062 C 268.050781 136.105469 268.636719 134.78125 269.191406 133.445312 C 269.746094 132.109375 270.265625 130.757812 270.753906 129.394531 C 271.242188 128.03125 271.695312 126.65625 272.117188 125.273438 C 272.535156 123.886719 272.921875 122.492188 273.273438 121.089844 C 273.625 119.683594 273.941406 118.273438 274.226562 116.851562 C 274.507812 115.433594 274.753906 114.007812 274.96875 112.574219 C 275.179688 111.144531 275.355469 109.707031 275.5 108.265625 C 275.640625 106.824219 275.746094 105.382812 275.816406 103.9375 C 275.886719 102.492188 275.925781 101.042969 275.925781 99.597656 C 275.925781 98.148438 275.886719 96.703125 275.816406 95.257812 C 275.746094 93.8125 275.640625 92.367188 275.5 90.925781 C 275.355469 89.488281 275.179688 88.050781 274.96875 86.617188 C 274.753906 85.1875 274.507812 83.761719 274.226562 82.339844 C 273.941406 80.921875 273.625 79.511719 273.273438 78.105469 C 272.921875 76.703125 272.535156 75.308594 272.117188 73.921875 C 271.695312 72.535156 271.242188 71.164062 270.753906 69.800781 C 270.265625 68.4375 269.746094 67.085938 269.191406 65.75 C 268.636719 64.410156 268.050781 63.089844 267.433594 61.78125 C 266.8125 60.472656 266.164062 59.179688 265.480469 57.902344 C 264.796875 56.625 264.085938 55.367188 263.339844 54.125 C 262.597656 52.882812 261.824219 51.660156 261.019531 50.457031 C 260.214844 49.253906 259.382812 48.070312 258.519531 46.910156 C 257.65625 45.746094 256.765625 44.605469 255.847656 43.484375 C 254.929688 42.367188 253.984375 41.269531 253.011719 40.199219 C 252.039062 39.125 251.042969 38.078125 250.019531 37.054688 C 248.996094 36.03125 247.945312 35.035156 246.875 34.0625 C 245.800781 33.089844 244.707031 32.144531 243.585938 31.226562 C 242.46875 30.308594 241.328125 29.417969 240.164062 28.554688 C 239.003906 27.691406 237.820312 26.859375 236.617188 26.054688 C 235.414062 25.25 234.191406 24.476562 232.949219 23.730469 C 231.707031 22.988281 230.449219 22.273438 229.171875 21.59375 C 227.894531 20.910156 226.601562 20.257812 225.292969 19.640625 C 223.984375 19.023438 222.660156 18.433594 221.324219 17.882812 C 219.988281 17.328125 218.636719 16.804688 217.273438 16.320312 C 215.910156 15.832031 214.535156 15.378906 213.152344 14.957031 C 211.765625 14.535156 210.371094 14.152344 208.96875 13.800781 C 207.5625 13.445312 206.152344 13.128906 204.730469 12.847656 C 203.3125 12.566406 201.886719 12.316406 200.453125 12.105469 C 199.023438 11.894531 197.585938 11.714844 196.144531 11.574219 C 194.707031 11.433594 193.261719 11.324219 191.816406 11.253906 C 190.371094 11.183594 188.925781 11.148438 187.476562 11.148438 C 186.027344 11.148438 184.582031 11.183594 183.136719 11.253906 C 181.691406 11.324219 180.246094 11.433594 178.808594 11.574219 C 177.367188 11.714844 175.929688 11.894531 174.5 12.105469 C 173.066406 12.316406 171.640625 12.566406 170.222656 12.847656 C 168.800781 13.128906 167.390625 13.445312 165.984375 13.796875 C 164.582031 14.148438 163.1875 14.535156 161.800781 14.957031 C 160.417969 15.375 159.042969 15.832031 157.679688 16.316406 C 156.316406 16.804688 154.964844 17.328125 153.628906 17.878906 C 152.292969 18.433594 150.96875 19.019531 149.660156 19.640625 C 148.351562 20.257812 147.058594 20.910156 145.78125 21.589844 C 144.503906 22.273438 143.246094 22.988281 142.003906 23.730469 C 140.761719 24.476562 139.539062 25.25 138.335938 26.054688 C 137.132812 26.859375 135.949219 27.691406 134.789062 28.554688 C 133.625 29.414062 132.484375 30.304688 131.363281 31.222656 C 130.246094 32.140625 129.148438 33.085938 128.078125 34.058594 C 127.003906 35.03125 125.957031 36.027344 124.933594 37.054688 C 123.910156 38.078125 122.910156 39.125 121.941406 40.195312 C 120.96875 41.269531 120.023438 42.363281 119.105469 43.484375 C 118.1875 44.601562 117.296875 45.742188 116.433594 46.90625 C 115.570312 48.070312 114.738281 49.253906 113.933594 50.457031 C 113.128906 51.660156 112.355469 52.882812 111.609375 54.125 C 110.867188 55.363281 110.152344 56.625 109.472656 57.902344 C 108.789062 59.175781 108.136719 60.46875 107.519531 61.777344 C 106.898438 63.085938 106.3125 64.410156 105.757812 65.746094 C 105.207031 67.085938 104.683594 68.433594 104.195312 69.796875 C 103.710938 71.160156 103.253906 72.535156 102.835938 73.917969 C 102.414062 75.304688 102.027344 76.699219 101.675781 78.105469 C 101.324219 79.507812 101.007812 80.917969 100.726562 82.339844 C 100.445312 83.757812 100.195312 85.183594 99.984375 86.617188 C 99.769531 88.046875 99.59375 89.484375 99.453125 90.925781 C 99.308594 92.367188 99.203125 93.808594 99.132812 95.253906 C 99.0625 96.699219 99.027344 98.148438 99.027344 99.59375 C 99.027344 101.042969 99.066406 102.488281 99.136719 103.933594 C 99.210938 105.378906 99.316406 106.820312 99.460938 108.261719 C 99.605469 109.703125 99.78125 111.136719 99.996094 112.566406 C 100.210938 114 100.457031 115.425781 100.742188 116.84375 C 101.023438 118.261719 101.34375 119.675781 101.695312 121.078125 C 102.046875 122.480469 102.433594 123.875 102.855469 125.257812 C 103.277344 126.644531 103.730469 128.015625 104.21875 129.378906 C 104.707031 130.742188 105.230469 132.089844 105.785156 133.429688 C 106.339844 134.765625 106.925781 136.085938 107.546875 137.394531 C 108.164062 138.703125 108.816406 139.996094 109.5 141.269531 C 110.179688 142.546875 110.894531 143.804688 111.640625 145.046875 C 112.382812 146.285156 113.15625 147.507812 113.960938 148.710938 C 114.765625 149.914062 115.601562 151.097656 116.460938 152.261719 C 117.324219 153.421875 118.214844 154.5625 119.132812 155.679688 C 120.050781 156.800781 120.996094 157.894531 121.96875 158.96875 C 122.941406 160.039062 123.9375 161.085938 124.960938 162.109375 C 125.984375 163.132812 127.03125 164.132812 128.105469 165.101562 C 129.175781 166.074219 130.269531 167.019531 131.390625 167.9375 C 132.507812 168.855469 133.648438 169.746094 134.808594 170.609375 C 135.972656 171.472656 137.15625 172.304688 138.359375 173.109375 C 139.5625 173.914062 140.78125 174.6875 142.023438 175.433594 C 143.265625 176.175781 144.523438 176.890625 145.800781 177.574219 C 147.074219 178.253906 148.367188 178.90625 149.675781 179.527344 C 150.984375 180.144531 152.304688 180.730469 153.640625 181.285156 C 154.980469 181.839844 156.328125 182.363281 157.691406 182.851562 C 159.050781 183.339844 160.425781 183.792969 161.808594 184.214844 C 163.195312 184.636719 164.589844 185.023438 165.992188 185.375 C 167.394531 185.726562 168.808594 186.046875 170.226562 186.332031 C 171.644531 186.613281 173.070312 186.863281 174.5 187.074219 C 175.933594 187.289062 177.367188 187.46875 178.808594 187.609375 C 180.25 187.753906 181.691406 187.863281 183.136719 187.933594 C 184.582031 188.007812 186.027344 188.042969 187.476562 188.046875 Z M 187.476562 26.445312 C 188.671875 26.445312 189.867188 26.472656 191.066406 26.53125 C 192.261719 26.589844 193.453125 26.679688 194.644531 26.796875 C 195.835938 26.914062 197.023438 27.0625 198.210938 27.238281 C 199.394531 27.414062 200.574219 27.617188 201.746094 27.851562 C 202.921875 28.082031 204.089844 28.347656 205.25 28.636719 C 206.410156 28.929688 207.566406 29.246094 208.710938 29.59375 C 209.855469 29.941406 210.992188 30.316406 212.121094 30.722656 C 213.246094 31.125 214.363281 31.554688 215.46875 32.011719 C 216.578125 32.472656 217.671875 32.957031 218.753906 33.46875 C 219.835938 33.980469 220.90625 34.519531 221.960938 35.082031 C 223.015625 35.648438 224.058594 36.238281 225.085938 36.851562 C 226.113281 37.46875 227.121094 38.109375 228.117188 38.773438 C 229.113281 39.4375 230.09375 40.128906 231.054688 40.839844 C 232.015625 41.554688 232.960938 42.289062 233.886719 43.050781 C 234.808594 43.808594 235.714844 44.589844 236.605469 45.394531 C 237.492188 46.199219 238.359375 47.023438 239.203125 47.871094 C 240.050781 48.71875 240.875 49.585938 241.679688 50.472656 C 242.484375 51.359375 243.265625 52.265625 244.027344 53.191406 C 244.785156 54.117188 245.523438 55.058594 246.234375 56.019531 C 246.949219 56.980469 247.636719 57.960938 248.300781 58.957031 C 248.96875 59.953125 249.609375 60.964844 250.222656 61.988281 C 250.839844 63.015625 251.429688 64.058594 251.992188 65.113281 C 252.558594 66.167969 253.097656 67.238281 253.609375 68.320312 C 254.121094 69.402344 254.605469 70.496094 255.0625 71.605469 C 255.519531 72.710938 255.953125 73.828125 256.355469 74.953125 C 256.757812 76.082031 257.132812 77.21875 257.480469 78.363281 C 257.828125 79.507812 258.148438 80.664062 258.4375 81.824219 C 258.730469 82.984375 258.992188 84.152344 259.226562 85.328125 C 259.460938 86.5 259.664062 87.679688 259.839844 88.863281 C 260.015625 90.050781 260.160156 91.238281 260.277344 92.429688 C 260.398438 93.621094 260.484375 94.8125 260.542969 96.007812 C 260.601562 97.207031 260.632812 98.402344 260.632812 99.597656 C 260.632812 100.796875 260.601562 101.992188 260.542969 103.1875 C 260.484375 104.382812 260.398438 105.578125 260.277344 106.769531 C 260.160156 107.960938 260.015625 109.148438 259.839844 110.332031 C 259.664062 111.519531 259.460938 112.695312 259.226562 113.871094 C 258.992188 115.046875 258.730469 116.214844 258.4375 117.375 C 258.148438 118.535156 257.828125 119.691406 257.480469 120.835938 C 257.132812 121.980469 256.757812 123.117188 256.355469 124.246094 C 255.953125 125.371094 255.519531 126.488281 255.0625 127.59375 C 254.605469 128.699219 254.121094 129.796875 253.609375 130.878906 C 253.097656 131.960938 252.558594 133.027344 251.992188 134.085938 C 251.429688 135.140625 250.839844 136.183594 250.222656 137.207031 C 249.609375 138.234375 248.96875 139.246094 248.300781 140.242188 C 247.636719 141.238281 246.949219 142.214844 246.234375 143.179688 C 245.523438 144.140625 244.785156 145.082031 244.027344 146.007812 C 243.265625 146.933594 242.484375 147.839844 241.679688 148.726562 C 240.875 149.613281 240.050781 150.480469 239.203125 151.328125 C 238.359375 152.175781 237.492188 153 236.605469 153.804688 C 235.714844 154.609375 234.808594 155.390625 233.886719 156.148438 C 232.960938 156.910156 232.015625 157.644531 231.054688 158.359375 C 230.09375 159.070312 229.113281 159.761719 228.117188 160.425781 C 227.121094 161.089844 226.113281 161.730469 225.085938 162.347656 C 224.058594 162.960938 223.015625 163.550781 221.960938 164.117188 C 220.90625 164.679688 219.835938 165.21875 218.753906 165.730469 C 217.671875 166.242188 216.578125 166.726562 215.46875 167.1875 C 214.363281 167.644531 213.246094 168.074219 212.121094 168.476562 C 210.992188 168.882812 209.855469 169.257812 208.710938 169.605469 C 207.566406 169.953125 206.410156 170.269531 205.25 170.5625 C 204.089844 170.851562 202.921875 171.113281 201.746094 171.347656 C 200.574219 171.582031 199.394531 171.785156 198.210938 171.960938 C 197.023438 172.136719 195.835938 172.285156 194.644531 172.402344 C 193.453125 172.519531 192.261719 172.605469 191.066406 172.664062 C 189.867188 172.722656 188.671875 172.753906 187.476562 172.753906 C 186.277344 172.753906 185.082031 172.722656 183.886719 172.664062 C 182.691406 172.605469 181.496094 172.519531 180.304688 172.402344 C 179.113281 172.285156 177.925781 172.136719 176.742188 171.960938 C 175.558594 171.785156 174.378906 171.582031 173.203125 171.347656 C 172.027344 171.113281 170.859375 170.851562 169.699219 170.558594 C 168.539062 170.269531 167.386719 169.949219 166.238281 169.601562 C 165.09375 169.253906 163.957031 168.878906 162.828125 168.476562 C 161.703125 168.074219 160.585938 167.640625 159.480469 167.183594 C 158.375 166.726562 157.28125 166.242188 156.195312 165.730469 C 155.113281 165.214844 154.046875 164.679688 152.988281 164.113281 C 151.933594 163.550781 150.894531 162.960938 149.867188 162.34375 C 148.839844 161.730469 147.828125 161.089844 146.832031 160.421875 C 145.835938 159.757812 144.859375 159.070312 143.898438 158.355469 C 142.933594 157.640625 141.992188 156.90625 141.066406 156.144531 C 140.140625 155.386719 139.234375 154.605469 138.347656 153.800781 C 137.460938 152.996094 136.59375 152.171875 135.746094 151.324219 C 134.902344 150.476562 134.074219 149.609375 133.269531 148.722656 C 132.46875 147.835938 131.6875 146.929688 130.925781 146.003906 C 130.167969 145.078125 129.429688 144.136719 128.71875 143.175781 C 128.003906 142.210938 127.316406 141.234375 126.648438 140.238281 C 125.984375 139.242188 125.34375 138.230469 124.730469 137.203125 C 124.113281 136.179688 123.523438 135.136719 122.960938 134.082031 C 122.394531 133.023438 121.855469 131.957031 121.34375 130.875 C 120.832031 129.789062 120.347656 128.695312 119.890625 127.589844 C 119.433594 126.484375 119 125.367188 118.597656 124.242188 C 118.195312 123.113281 117.820312 121.976562 117.472656 120.832031 C 117.125 119.683594 116.804688 118.53125 116.515625 117.371094 C 116.222656 116.207031 115.960938 115.042969 115.726562 113.867188 C 115.496094 112.691406 115.289062 111.511719 115.113281 110.328125 C 114.9375 109.144531 114.792969 107.957031 114.675781 106.765625 C 114.558594 105.574219 114.46875 104.378906 114.410156 103.183594 C 114.351562 101.988281 114.324219 100.792969 114.324219 99.59375 C 114.324219 98.398438 114.355469 97.203125 114.414062 96.007812 C 114.476562 94.8125 114.5625 93.617188 114.683594 92.425781 C 114.800781 91.238281 114.949219 90.050781 115.125 88.867188 C 115.300781 87.683594 115.507812 86.503906 115.742188 85.328125 C 115.976562 84.15625 116.238281 82.988281 116.53125 81.828125 C 116.824219 80.667969 117.144531 79.515625 117.492188 78.371094 C 117.839844 77.222656 118.214844 76.089844 118.621094 74.960938 C 119.023438 73.835938 119.457031 72.71875 119.914062 71.613281 C 120.371094 70.507812 120.859375 69.414062 121.371094 68.332031 C 121.882812 67.25 122.421875 66.183594 122.984375 65.128906 C 123.550781 64.074219 124.140625 63.03125 124.757812 62.003906 C 125.371094 60.980469 126.011719 59.96875 126.675781 58.972656 C 127.34375 57.980469 128.03125 57 128.746094 56.039062 C 129.457031 55.078125 130.195312 54.136719 130.953125 53.210938 C 131.714844 52.285156 132.496094 51.378906 133.296875 50.492188 C 134.101562 49.605469 134.925781 48.738281 135.773438 47.894531 C 136.621094 47.046875 137.484375 46.222656 138.371094 45.417969 C 139.257812 44.613281 140.164062 43.832031 141.089844 43.074219 C 142.015625 42.316406 142.957031 41.578125 143.917969 40.867188 C 144.882812 40.152344 145.859375 39.464844 146.855469 38.796875 C 147.847656 38.132812 148.859375 37.492188 149.886719 36.875 C 150.914062 36.261719 151.953125 35.671875 153.007812 35.105469 C 154.0625 34.542969 155.132812 34.003906 156.214844 33.492188 C 157.296875 32.980469 158.390625 32.492188 159.496094 32.035156 C 160.601562 31.578125 161.714844 31.144531 162.84375 30.742188 C 163.96875 30.335938 165.105469 29.960938 166.25 29.613281 C 167.394531 29.265625 168.546875 28.945312 169.707031 28.652344 C 170.867188 28.363281 172.035156 28.097656 173.210938 27.863281 C 174.382812 27.628906 175.5625 27.425781 176.746094 27.246094 C 177.929688 27.070312 179.117188 26.921875 180.308594 26.804688 C 181.5 26.6875 182.691406 26.597656 183.886719 26.535156 C 185.082031 26.476562 186.277344 26.445312 187.476562 26.445312 Z M 187.476562 26.445312 " fill-opacity="1" fill-rule="nonzero"/></g><g clip-path="url(#636777e8bb)"><path fill="#1800ad" d="M 187.476562 202.140625 C 185.15625 202.144531 182.835938 202.203125 180.519531 202.320312 C 178.203125 202.4375 175.890625 202.609375 173.582031 202.839844 C 171.269531 203.070312 168.96875 203.355469 166.675781 203.695312 C 164.378906 204.039062 162.09375 204.4375 159.820312 204.894531 C 157.546875 205.347656 155.28125 205.855469 153.03125 206.421875 C 150.78125 206.988281 148.546875 207.609375 146.328125 208.285156 C 144.109375 208.957031 141.90625 209.6875 139.722656 210.46875 C 137.539062 211.253906 135.375 212.089844 133.230469 212.976562 C 131.089844 213.867188 128.96875 214.808594 126.871094 215.800781 C 124.773438 216.792969 122.703125 217.839844 120.65625 218.933594 C 118.613281 220.027344 116.59375 221.171875 114.605469 222.363281 C 112.613281 223.558594 110.65625 224.800781 108.726562 226.089844 C 106.796875 227.378906 104.902344 228.714844 103.039062 230.097656 C 101.175781 231.480469 99.347656 232.90625 97.554688 234.378906 C 95.761719 235.851562 94.003906 237.367188 92.285156 238.925781 C 90.566406 240.484375 88.886719 242.082031 87.246094 243.722656 C 85.605469 245.363281 84.007812 247.042969 82.449219 248.761719 C 80.890625 250.480469 79.375 252.238281 77.902344 254.03125 C 76.429688 255.824219 75.003906 257.652344 73.621094 259.515625 C 72.238281 261.378906 70.902344 263.273438 69.613281 265.203125 C 68.324219 267.132812 67.082031 269.089844 65.886719 271.082031 C 64.695312 273.070312 63.550781 275.085938 62.457031 277.132812 C 61.359375 279.179688 60.316406 281.25 59.324219 283.347656 C 58.332031 285.445312 57.390625 287.5625 56.5 289.707031 C 55.613281 291.851562 54.777344 294.015625 53.992188 296.199219 C 53.210938 298.382812 52.480469 300.582031 51.804688 302.804688 C 51.128906 305.023438 50.511719 307.257812 49.945312 309.507812 C 49.378906 311.757812 48.871094 314.019531 48.414062 316.296875 C 47.960938 318.570312 47.5625 320.855469 47.21875 323.152344 C 46.875 325.445312 46.589844 327.746094 46.359375 330.054688 C 46.132812 332.363281 45.957031 334.679688 45.839844 336.996094 C 45.726562 339.3125 45.667969 341.632812 45.664062 343.949219 C 45.664062 344.601562 45.695312 345.25 45.757812 345.894531 C 45.820312 346.542969 45.917969 347.183594 46.042969 347.824219 C 46.167969 348.460938 46.328125 349.089844 46.515625 349.710938 C 46.703125 350.335938 46.921875 350.945312 47.171875 351.546875 C 47.421875 352.148438 47.699219 352.734375 48.003906 353.308594 C 48.308594 353.878906 48.644531 354.4375 49.003906 354.976562 C 49.367188 355.519531 49.753906 356.039062 50.164062 356.542969 C 50.578125 357.042969 51.011719 357.523438 51.472656 357.984375 C 51.933594 358.445312 52.414062 358.878906 52.917969 359.292969 C 53.417969 359.703125 53.941406 360.089844 54.480469 360.453125 C 55.019531 360.8125 55.578125 361.148438 56.152344 361.453125 C 56.722656 361.757812 57.3125 362.035156 57.910156 362.285156 C 58.511719 362.535156 59.125 362.753906 59.746094 362.941406 C 60.367188 363.128906 60.996094 363.285156 61.636719 363.414062 C 62.273438 363.539062 62.914062 363.632812 63.5625 363.699219 C 64.207031 363.761719 64.855469 363.792969 65.507812 363.792969 L 309.429688 363.792969 C 310.96875 363.789062 312.484375 363.609375 313.980469 363.253906 C 315.476562 362.898438 316.914062 362.378906 318.289062 361.691406 C 319.664062 361.003906 320.945312 360.167969 322.128906 359.1875 C 323.3125 358.203125 324.367188 357.097656 325.292969 355.871094 C 326.589844 354.15625 327.578125 352.277344 328.261719 350.234375 C 328.941406 348.195312 329.28125 346.097656 329.277344 343.945312 C 329.273438 341.625 329.214844 339.308594 329.097656 336.992188 C 328.980469 334.675781 328.808594 332.359375 328.578125 330.050781 C 328.347656 327.742188 328.0625 325.441406 327.71875 323.148438 C 327.378906 320.851562 326.976562 318.570312 326.523438 316.292969 C 326.070312 314.019531 325.558594 311.757812 324.992188 309.507812 C 324.429688 307.257812 323.808594 305.019531 323.132812 302.800781 C 322.457031 300.582031 321.730469 298.378906 320.945312 296.195312 C 320.164062 294.011719 319.328125 291.847656 318.4375 289.707031 C 317.550781 287.5625 316.609375 285.445312 315.617188 283.347656 C 314.621094 281.25 313.578125 279.179688 312.484375 277.132812 C 311.390625 275.089844 310.246094 273.070312 309.050781 271.082031 C 307.859375 269.089844 306.617188 267.132812 305.328125 265.203125 C 304.039062 263.273438 302.703125 261.378906 301.320312 259.515625 C 299.9375 257.652344 298.511719 255.824219 297.039062 254.03125 C 295.566406 252.238281 294.050781 250.484375 292.492188 248.761719 C 290.933594 247.042969 289.335938 245.363281 287.695312 243.722656 C 286.054688 242.085938 284.375 240.484375 282.65625 238.925781 C 280.9375 237.367188 279.183594 235.851562 277.390625 234.382812 C 275.597656 232.910156 273.769531 231.480469 271.90625 230.097656 C 270.042969 228.71875 268.144531 227.382812 266.21875 226.089844 C 264.289062 224.800781 262.328125 223.5625 260.339844 222.367188 C 258.351562 221.171875 256.332031 220.03125 254.289062 218.933594 C 252.242188 217.839844 250.171875 216.796875 248.074219 215.804688 C 245.976562 214.8125 243.859375 213.871094 241.714844 212.980469 C 239.570312 212.089844 237.410156 211.253906 235.226562 210.472656 C 233.039062 209.6875 230.839844 208.960938 228.621094 208.285156 C 226.398438 207.609375 224.164062 206.988281 221.914062 206.425781 C 219.664062 205.859375 217.402344 205.347656 215.128906 204.894531 C 212.851562 204.4375 210.566406 204.039062 208.273438 203.699219 C 205.980469 203.355469 203.675781 203.070312 201.367188 202.839844 C 199.058594 202.609375 196.746094 202.4375 194.429688 202.320312 C 192.113281 202.203125 189.796875 202.144531 187.476562 202.140625 Z M 313.082031 346.6875 C 312.652344 347.261719 312.117188 347.707031 311.472656 348.023438 C 310.832031 348.339844 310.15625 348.5 309.4375 348.496094 L 65.515625 348.496094 C 64.714844 348.5 63.964844 348.304688 63.265625 347.90625 C 62.566406 347.511719 62.015625 346.96875 61.605469 346.277344 C 61.175781 345.558594 60.960938 344.785156 60.96875 343.945312 C 60.976562 341.882812 61.035156 339.816406 61.144531 337.757812 C 61.253906 335.695312 61.414062 333.636719 61.625 331.582031 C 61.835938 329.527344 62.097656 327.480469 62.40625 325.4375 C 62.71875 323.398438 63.078125 321.363281 63.488281 319.339844 C 63.898438 317.316406 64.359375 315.304688 64.867188 313.304688 C 65.378906 311.300781 65.933594 309.316406 66.539062 307.339844 C 67.148438 305.367188 67.800781 303.410156 68.503906 301.464844 C 69.207031 299.523438 69.953125 297.601562 70.75 295.695312 C 71.546875 293.789062 72.390625 291.90625 73.277344 290.042969 C 74.167969 288.179688 75.101562 286.335938 76.078125 284.519531 C 77.058594 282.699219 78.078125 280.90625 79.144531 279.140625 C 80.214844 277.371094 81.320312 275.628906 82.472656 273.917969 C 83.625 272.203125 84.820312 270.515625 86.054688 268.863281 C 87.285156 267.207031 88.5625 265.582031 89.875 263.988281 C 91.1875 262.394531 92.539062 260.835938 93.929688 259.308594 C 95.320312 257.78125 96.746094 256.289062 98.210938 254.832031 C 99.675781 253.375 101.171875 251.957031 102.703125 250.570312 C 104.238281 249.1875 105.804688 247.84375 107.402344 246.535156 C 109 245.230469 110.628906 243.960938 112.289062 242.734375 C 113.953125 241.507812 115.640625 240.320312 117.359375 239.175781 C 119.078125 238.03125 120.824219 236.929688 122.597656 235.871094 C 124.371094 234.8125 126.167969 233.796875 127.988281 232.828125 C 129.8125 231.855469 131.65625 230.929688 133.523438 230.050781 C 135.390625 229.167969 137.28125 228.335938 139.1875 227.546875 C 141.097656 226.757812 143.023438 226.015625 144.96875 225.324219 C 146.914062 224.628906 148.875 223.984375 150.851562 223.386719 C 152.828125 222.789062 154.816406 222.238281 156.820312 221.738281 C 158.824219 221.238281 160.839844 220.785156 162.863281 220.386719 C 164.890625 219.984375 166.925781 219.632812 168.964844 219.328125 C 171.007812 219.027344 173.058594 218.773438 175.113281 218.574219 C 177.167969 218.371094 179.226562 218.21875 181.289062 218.117188 C 183.351562 218.015625 185.414062 217.96875 187.480469 217.96875 C 189.546875 217.96875 191.609375 218.015625 193.671875 218.117188 C 195.734375 218.21875 197.792969 218.371094 199.847656 218.574219 C 201.902344 218.773438 203.953125 219.027344 205.996094 219.328125 C 208.039062 219.632812 210.070312 219.984375 212.097656 220.386719 C 214.121094 220.785156 216.136719 221.238281 218.140625 221.738281 C 220.144531 222.238281 222.132812 222.789062 224.109375 223.386719 C 226.085938 223.984375 228.046875 224.628906 229.992188 225.324219 C 231.9375 226.015625 233.863281 226.757812 235.773438 227.546875 C 237.679688 228.335938 239.570312 229.167969 241.4375 230.050781 C 243.304688 230.929688 245.148438 231.855469 246.972656 232.828125 C 248.792969 233.796875 250.589844 234.8125 252.363281 235.871094 C 254.136719 236.929688 255.882812 238.03125 257.601562 239.175781 C 259.320312 240.320312 261.011719 241.507812 262.671875 242.734375 C 264.332031 243.960938 265.960938 245.230469 267.558594 246.535156 C 269.160156 247.84375 270.722656 249.1875 272.257812 250.570312 C 273.789062 251.957031 275.289062 253.375 276.75 254.832031 C 278.214844 256.289062 279.640625 257.78125 281.03125 259.308594 C 282.421875 260.835938 283.773438 262.394531 285.085938 263.988281 C 286.398438 265.582031 287.675781 267.207031 288.910156 268.863281 C 290.144531 270.515625 291.335938 272.203125 292.488281 273.917969 C 293.640625 275.628906 294.75 277.371094 295.816406 279.140625 C 296.882812 280.90625 297.902344 282.699219 298.882812 284.519531 C 299.863281 286.335938 300.796875 288.179688 301.683594 290.042969 C 302.570312 291.90625 303.414062 293.789062 304.210938 295.695312 C 305.007812 297.601562 305.757812 299.523438 306.457031 301.46875 C 307.160156 303.410156 307.8125 305.367188 308.421875 307.339844 C 309.027344 309.316406 309.585938 311.300781 310.09375 313.304688 C 310.601562 315.304688 311.0625 317.316406 311.472656 319.339844 C 311.882812 321.363281 312.242188 323.398438 312.554688 325.4375 C 312.863281 327.480469 313.125 329.527344 313.335938 331.582031 C 313.546875 333.636719 313.707031 335.695312 313.816406 337.757812 C 313.925781 339.816406 313.984375 341.882812 313.992188 343.945312 C 313.992188 344.960938 313.6875 345.871094 313.074219 346.675781 Z M 313.082031 346.6875 " fill-opacity="1" fill-rule="nonzero"/></g></svg>