<svg xmlns="http://www.w3.org/2000/svg" xmlns:xlink="http://www.w3.org/1999/xlink" width="500" zoomAndPan="magnify" viewBox="0 0 375 374.999991" height="500" preserveAspectRatio="xMidYMid meet" version="1.0"><defs><clipPath id="a269b7f38a"><path d="M 0 15 L 375 15 L 375 360.410156 L 0 360.410156 Z M 0 15 " clip-rule="nonzero"/></clipPath><clipPath id="d1a500e919"><path d="M 60 15 L 289 15 L 289 360.410156 L 60 360.410156 Z M 60 15 " clip-rule="nonzero"/></clipPath></defs><g clip-path="url(#a269b7f38a)"><path fill="#bfe385" d="M 374.921875 360.382812 L 254.515625 360.382812 L 248.503906 338.980469 C 248.535156 338.996094 248.570312 339.007812 248.601562 339.023438 C 249.035156 339.203125 249.226562 338.492188 248.796875 338.316406 C 248.613281 338.238281 248.433594 338.164062 248.253906 338.089844 L 244.539062 324.863281 C 244.9375 325 245.269531 324.414062 244.859375 324.214844 C 244.667969 324.121094 244.472656 324.035156 244.277344 323.941406 L 230.742188 275.753906 C 230.742188 275.753906 236.324219 273.5625 243.964844 267.703125 C 254.632812 271.085938 259.164062 246.480469 280.65625 250.410156 C 303.644531 254.613281 315.246094 299.222656 320.9375 305.691406 C 326.632812 312.15625 335.703125 297.929688 350.886719 309.246094 C 366.070312 320.5625 374.921875 360.382812 374.921875 360.382812 Z M 83.761719 233.867188 C 80.558594 234.773438 77.285156 236.226562 73.953125 238.367188 C 42.144531 258.808594 51.710938 308.574219 38.957031 309.910156 C 26.199219 311.242188 11.40625 303.828125 0.078125 360.382812 L 105.464844 360.382812 L 119.101562 271.683594 C 119.105469 271.683594 100.125 256.640625 83.761719 233.867188 Z M 167.769531 347.125 C 169.621094 345.21875 171.242188 343.101562 172.59375 340.808594 C 175.039062 336.65625 176.597656 332.003906 177.199219 327.234375 C 173.945312 327.601562 170.65625 327.640625 167.398438 327.351562 C 167.523438 333.941406 167.644531 340.53125 167.769531 347.125 Z M 176.40625 314.261719 C 172.949219 314.613281 169.875 314.730469 167.160156 314.675781 C 167.199219 316.78125 167.238281 318.882812 167.28125 320.984375 C 167.316406 322.863281 167.351562 324.746094 167.386719 326.625 C 170.679688 326.917969 174 326.875 177.28125 326.488281 C 177.710938 322.402344 177.441406 318.246094 176.40625 314.261719 Z M 178.160156 320.589844 C 178.28125 322.523438 178.234375 324.460938 178.039062 326.386719 C 179.484375 326.195312 180.921875 325.9375 182.34375 325.609375 C 182.542969 321.542969 182.789062 317.445312 183.078125 313.351562 C 180.984375 313.703125 179.011719 313.976562 177.144531 314.179688 C 177.683594 316.28125 178.023438 318.425781 178.160156 320.589844 Z M 155.425781 323.949219 C 157.332031 324.644531 159.28125 325.226562 161.265625 325.671875 C 163.042969 326.070312 164.839844 326.359375 166.648438 326.550781 C 166.574219 322.585938 166.5 318.621094 166.425781 314.660156 C 161.984375 314.519531 158.535156 313.925781 155.90625 313.195312 Z M 179.667969 326.898438 C 179.09375 326.992188 178.523438 327.074219 177.949219 327.148438 C 177.03125 334.652344 173.773438 341.863281 168.558594 347.355469 C 169.839844 347.214844 171.109375 346.976562 172.351562 346.632812 C 172.808594 346.507812 173 347.214844 172.546875 347.339844 C 171.296875 347.683594 170.019531 347.921875 168.730469 348.070312 C 168.839844 351.898438 168.988281 355.730469 169.097656 359.558594 C 169.113281 360.03125 168.378906 360.027344 168.367188 359.558594 C 168.257812 355.753906 168.109375 351.953125 168 348.148438 C 167.992188 348.148438 167.984375 348.148438 167.980469 348.148438 C 167.839844 348.160156 167.746094 348.101562 167.691406 348.015625 C 165.714844 347.65625 163.738281 347.296875 161.761719 346.941406 C 161.296875 346.855469 161.496094 346.148438 161.957031 346.234375 C 163.648438 346.539062 165.34375 346.847656 167.039062 347.15625 C 167.039062 347.152344 167.035156 347.152344 167.035156 347.148438 C 166.988281 344.675781 166.945312 342.199219 166.898438 339.726562 C 166.820312 335.578125 166.742188 331.433594 166.664062 327.285156 C 162.824219 326.886719 159.03125 326.027344 155.390625 324.71875 L 153.789062 360.382812 L 181.992188 360.382812 C 181.570312 349.683594 181.742188 338.140625 182.304688 326.371094 C 181.429688 326.570312 180.550781 326.75 179.667969 326.898438 Z M 222.28125 105.226562 C 218.117188 101.851562 215.414062 99.941406 213.167969 99.375 C 210.914062 98.8125 209.449219 100.054688 210.351562 97.800781 C 211.25 95.546875 211.589844 95.433594 211.363281 93.410156 C 211.140625 91.382812 215.640625 88.90625 215.300781 86.996094 C 214.964844 85.078125 212.824219 82.152344 210.914062 83.167969 C 209 84.179688 205.960938 88.90625 204.609375 86.320312 C 203.261719 83.730469 202.925781 81.300781 205.273438 78.644531 C 207.628906 75.988281 207.933594 72.117188 210.738281 72.269531 C 213.546875 72.421875 216.351562 71.96875 218.398438 70.144531 C 220.453125 68.328125 222.574219 60.96875 221.585938 57.097656 C 220.601562 53.226562 212.257812 54.132812 214.152344 50.796875 C 216.050781 47.457031 226.066406 38.125 226.519531 32.660156 C 226.78125 29.535156 225.371094 26.128906 224.125 23.792969 L 224.121094 23.792969 C 215.25 24.996094 206.019531 29.746094 197.863281 38.910156 C 198.351562 40.457031 198.730469 42.039062 198.976562 43.648438 C 199.046875 44.109375 198.339844 44.308594 198.269531 43.84375 C 197.765625 40.558594 196.746094 37.375 195.226562 34.417969 C 195.171875 34.308594 195.171875 34.207031 195.207031 34.117188 C 191.8125 27.804688 184.460938 17.667969 171.546875 15.574219 C 169.597656 16.984375 162.941406 22.058594 161.695312 26.359375 C 160.234375 31.40625 159.96875 35.394531 158.507812 36.988281 C 157.042969 38.582031 152.929688 45.886719 154.523438 50.269531 C 156.117188 54.652344 163.019531 54.917969 163.816406 58.503906 C 164.617188 62.09375 154.917969 68.734375 166.605469 75.644531 C 166.605469 75.644531 164.75 86.800781 167.402344 87.335938 C 170.058594 87.863281 171.921875 79.628906 173.515625 78.429688 C 175.109375 77.238281 173.777344 83.082031 173.515625 86.136719 C 173.246094 89.191406 178.027344 100.484375 195.160156 102.34375 C 195.160156 102.34375 197.230469 102.742188 196.660156 104.867188 C 196.09375 106.992188 195.371094 108.457031 196.660156 111.378906 C 197.949219 114.300781 191.703125 114.542969 190.476562 122.089844 C 190.015625 124.929688 190.25 127.566406 190.71875 129.753906 C 197.445312 127.671875 206.324219 124.429688 215.542969 119.691406 C 215.542969 119.691406 215.542969 119.6875 215.542969 119.6875 C 218.945312 117.941406 222.386719 115.996094 225.785156 113.820312 C 225.429688 110.78125 224.527344 107.050781 222.28125 105.226562 Z M 242.285156 69.792969 C 243.40625 70.453125 246.644531 68.667969 249.484375 69 C 252.324219 69.328125 252.65625 72.035156 254.703125 75.074219 C 255.519531 76.292969 256.53125 77.570312 257.449219 78.675781 C 257.699219 78.09375 257.9375 77.503906 258.171875 76.90625 C 260.054688 72.078125 261.164062 67.429688 261.613281 63.03125 C 262.445312 54.855469 260.992188 47.535156 257.917969 41.480469 C 255.644531 41.675781 251.976562 42.691406 250.867188 43.167969 C 249.476562 43.761719 246.246094 49.378906 245.980469 51.097656 C 245.71875 52.8125 249.945312 54.398438 250.144531 56.117188 C 250.34375 57.832031 244.460938 61.136719 243.210938 62.855469 C 241.957031 64.574219 241.164062 69.132812 242.285156 69.792969 Z M 145.578125 69.230469 C 143.65625 68.878906 144.964844 67.480469 143.304688 66.085938 C 141.648438 64.691406 139.289062 66 137.980469 65.472656 C 136.671875 64.949219 139.03125 61.71875 138.332031 60.234375 C 137.632812 58.75 137.542969 56.832031 138.242188 55.691406 C 138.941406 54.558594 141.824219 47.488281 140.515625 45.300781 C 139.566406 43.722656 134.761719 42.140625 132.191406 41.386719 C 131.402344 45.566406 131.28125 50.117188 131.789062 54.949219 C 132.753906 64.097656 135.988281 74.25 141.277344 84.765625 C 142.378906 85.265625 143.445312 85.851562 144.457031 86.550781 C 144.574219 86.628906 144.613281 86.742188 144.613281 86.855469 C 144.816406 86.78125 145.027344 86.707031 145.242188 86.632812 C 146.285156 82.941406 147.519531 78.535156 148.109375 76.214844 C 149.242188 71.761719 147.496094 69.578125 145.578125 69.230469 Z M 170.828125 113.015625 C 168.535156 113.679688 168.910156 109.339844 165.851562 108.683594 C 163.871094 108.257812 161.207031 110.761719 159.578125 112.578125 C 159.65625 112.675781 159.734375 112.769531 159.8125 112.867188 C 160.574219 113.792969 161.347656 114.71875 162.136719 115.644531 C 165.632812 119.746094 169.398438 123.8125 173.433594 127.804688 C 174.667969 123.234375 176.480469 115.992188 175.933594 114.789062 C 175.117188 113.015625 173.121094 112.347656 170.828125 113.015625 Z M 236.535156 82.210938 C 237.414062 81.199219 237.546875 78.773438 236.066406 77.425781 C 234.582031 76.078125 232.898438 76.820312 231.148438 77.222656 C 229.394531 77.628906 230.609375 74.527344 229.195312 74.039062 C 227.777344 73.550781 224.546875 75.945312 223.46875 76.886719 C 222.390625 77.832031 223.671875 79.988281 225.085938 81.578125 C 226.5 83.167969 229.929688 83.265625 230.675781 83.355469 C 232.632812 83.59375 235.660156 83.21875 236.535156 82.210938 Z M 236.535156 82.210938 " fill-opacity="1" fill-rule="nonzero"/></g><g clip-path="url(#d1a500e919)"><path fill="#a6c9fd" d="M 210.914062 83.167969 C 212.824219 82.152344 214.964844 85.078125 215.300781 86.996094 C 215.640625 88.90625 211.140625 91.382812 211.363281 93.410156 C 211.589844 95.433594 211.25 95.546875 210.351562 97.800781 C 209.449219 100.050781 210.914062 98.8125 213.167969 99.371094 C 215.414062 99.941406 218.117188 101.851562 222.28125 105.226562 C 224.527344 107.050781 225.429688 110.777344 225.789062 113.820312 C 227.601562 112.660156 229.398438 111.433594 231.171875 110.144531 C 228.476562 107.683594 225.570312 104.691406 223.066406 101.34375 C 216.054688 91.976562 214.9375 85.265625 218.570312 84.984375 C 221.839844 84.734375 230.433594 91.710938 232.136719 93.125 C 232.148438 92.988281 232.226562 92.863281 232.398438 92.820312 C 234.28125 92.351562 236.234375 92.21875 238.164062 92.449219 C 241.3125 92.824219 244.199219 94.152344 246.523438 96.132812 C 250.910156 90.992188 254.675781 85.199219 257.449219 78.675781 C 256.53125 77.570312 255.519531 76.292969 254.703125 75.074219 C 252.65625 72.035156 252.324219 69.328125 249.484375 69 C 246.644531 68.667969 243.40625 70.453125 242.28125 69.792969 C 241.164062 69.132812 241.953125 64.570312 243.210938 62.855469 C 244.460938 61.136719 250.34375 57.832031 250.144531 56.117188 C 249.941406 54.398438 245.714844 52.8125 245.980469 51.097656 C 246.242188 49.378906 249.472656 43.761719 250.867188 43.167969 C 251.976562 42.691406 255.640625 41.675781 257.917969 41.480469 C 251.570312 28.960938 238.324219 21.847656 224.125 23.789062 C 225.371094 26.125 226.777344 29.53125 226.519531 32.660156 C 226.066406 38.125 216.046875 47.457031 214.152344 50.796875 C 212.257812 54.132812 220.601562 53.222656 221.585938 57.09375 C 222.570312 60.964844 220.449219 68.324219 218.398438 70.144531 C 216.351562 71.964844 213.546875 72.421875 210.738281 72.269531 C 207.933594 72.117188 207.628906 75.988281 205.273438 78.640625 C 202.925781 81.300781 203.261719 83.730469 204.609375 86.320312 C 205.960938 88.90625 209 84.179688 210.914062 83.167969 Z M 223.46875 76.886719 C 224.546875 75.945312 227.78125 73.550781 229.195312 74.039062 C 230.609375 74.527344 229.398438 77.628906 231.148438 77.222656 C 232.898438 76.820312 234.582031 76.078125 236.066406 77.425781 C 237.546875 78.773438 237.414062 81.199219 236.539062 82.210938 C 235.660156 83.222656 232.632812 83.59375 230.675781 83.355469 C 229.929688 83.265625 226.5 83.167969 225.085938 81.578125 C 223.671875 79.988281 222.390625 77.832031 223.46875 76.886719 Z M 190.71875 129.75 C 183.503906 131.984375 178.773438 132.890625 178.773438 132.890625 C 176.945312 131.207031 175.164062 129.507812 173.433594 127.800781 C 174.667969 123.230469 176.480469 115.988281 175.933594 114.785156 C 175.117188 113.011719 173.121094 112.347656 170.828125 113.011719 C 168.535156 113.675781 168.910156 109.339844 165.851562 108.683594 C 163.871094 108.257812 161.207031 110.761719 159.578125 112.578125 C 155.394531 107.453125 151.65625 102.285156 148.363281 97.144531 C 149.234375 96.730469 150.0625 96.3125 150.824219 95.886719 C 159.523438 91.039062 161.6875 88.042969 160.535156 85.761719 C 159.460938 83.636719 150.503906 84.847656 145.242188 86.632812 C 146.285156 82.941406 147.519531 78.535156 148.109375 76.214844 C 149.242188 71.761719 147.496094 69.578125 145.578125 69.230469 C 143.65625 68.878906 144.964844 67.480469 143.304688 66.085938 C 141.648438 64.691406 139.289062 66 137.980469 65.472656 C 136.671875 64.949219 139.03125 61.71875 138.332031 60.234375 C 137.632812 58.75 137.542969 56.832031 138.242188 55.691406 C 138.941406 54.558594 141.824219 47.488281 140.515625 45.300781 C 139.566406 43.722656 134.761719 42.140625 132.191406 41.386719 C 134.128906 31.050781 140.128906 23.007812 150.664062 18.671875 C 158.84375 15.304688 165.757812 14.632812 171.546875 15.570312 C 169.597656 16.980469 162.941406 22.054688 161.695312 26.355469 C 160.234375 31.402344 159.96875 35.390625 158.507812 36.984375 C 157.042969 38.578125 152.929688 45.882812 154.523438 50.265625 C 156.117188 54.652344 163.019531 54.914062 163.816406 58.503906 C 164.617188 62.089844 154.917969 68.730469 166.605469 75.640625 C 166.605469 75.640625 164.75 86.796875 167.402344 87.332031 C 170.058594 87.859375 171.921875 79.625 173.515625 78.425781 C 175.109375 77.234375 173.777344 83.078125 173.515625 86.132812 C 173.246094 89.1875 178.027344 100.480469 195.160156 102.339844 C 195.160156 102.339844 197.230469 102.738281 196.660156 104.867188 C 196.09375 106.992188 195.371094 108.453125 196.660156 111.375 C 197.949219 114.296875 191.703125 114.542969 190.476562 122.085938 C 190.015625 124.929688 190.25 127.566406 190.71875 129.75 Z M 244.492188 324.851562 C 244.507812 324.859375 244.523438 324.859375 244.539062 324.863281 L 248.253906 338.089844 C 239.503906 334.476562 230.828125 330.695312 222.230469 326.742188 C 219.867188 325.65625 217.511719 324.554688 215.160156 323.445312 C 216.308594 320.355469 217.457031 317.265625 218.605469 314.179688 C 227.4375 317.210938 236.085938 320.777344 244.492188 324.851562 Z M 284.980469 190.222656 C 294.792969 122.128906 279.460938 102.5 279.460938 102.5 C 279.460938 102.5 279.027344 102.523438 278.242188 102.601562 C 273.410156 103.09375 255.074219 105.65625 240.222656 117.296875 C 239.835938 117.601562 239.453125 117.90625 239.074219 118.21875 C 239.074219 118.21875 240.074219 122.527344 240.902344 129.328125 C 243.410156 127.355469 246.042969 125.546875 248.804688 123.941406 C 259.449219 117.742188 271.71875 114.398438 284.042969 114.414062 C 284.515625 114.414062 284.511719 115.148438 284.042969 115.148438 C 280.597656 115.144531 277.160156 115.394531 273.757812 115.910156 C 261.84375 117.71875 250.429688 122.652344 241.003906 130.167969 C 242.707031 144.851562 243.445312 170.203125 232.410156 189.609375 C 229 195.613281 224.460938 201.046875 218.476562 205.421875 C 216.046875 207.195312 213.378906 208.800781 210.449219 210.195312 L 198.039062 209.289062 C 200.050781 216.332031 204.839844 222.097656 207.777344 228.738281 C 209.074219 231.679688 210.050781 234.804688 210.1875 238.039062 C 210.324219 241.246094 209.496094 244.335938 208.199219 247.25 C 206.84375 250.285156 205.074219 253.121094 203.441406 256.011719 C 201.730469 259.042969 200.066406 262.101562 198.453125 265.1875 C 193.296875 275.0625 188.660156 285.207031 184.550781 295.558594 C 183.996094 301.441406 183.496094 307.394531 183.078125 313.355469 C 182.792969 317.449219 182.542969 321.542969 182.34375 325.613281 C 182.332031 325.867188 182.320312 326.121094 182.304688 326.375 C 181.742188 338.140625 181.574219 349.683594 181.992188 360.386719 L 254.515625 360.386719 L 248.503906 338.984375 C 246.011719 337.957031 243.523438 336.914062 241.039062 335.859375 C 232.121094 332.066406 223.277344 328.09375 214.515625 323.949219 C 214.378906 323.886719 214.296875 323.675781 214.347656 323.535156 C 215.578125 320.230469 216.804688 316.921875 218.03125 313.617188 C 218.097656 313.441406 218.285156 313.292969 218.484375 313.363281 C 227.285156 316.371094 235.898438 319.90625 244.28125 323.941406 L 230.746094 275.757812 C 230.746094 275.757812 236.328125 273.5625 243.964844 267.707031 C 257.882812 257.03125 278.644531 234.183594 284.980469 190.222656 Z M 230.371094 275.449219 C 227.882812 271.140625 225.589844 266.71875 223.503906 262.199219 C 219.839844 254.261719 216.800781 246.039062 214.433594 237.625 C 212.066406 229.207031 210.375 220.605469 209.367188 211.917969 C 209.3125 211.449219 210.046875 211.457031 210.097656 211.917969 C 210.667969 216.832031 211.460938 221.714844 212.476562 226.554688 C 214.253906 235.042969 216.703125 243.390625 219.789062 251.496094 C 222.890625 259.640625 226.648438 267.53125 231.003906 275.082031 C 231.238281 275.492188 230.605469 275.859375 230.371094 275.449219 Z M 196.667969 209.1875 L 197.257812 209.230469 C 198.976562 215.484375 202.894531 220.734375 205.847656 226.421875 C 207.378906 229.371094 208.675781 232.484375 209.21875 235.777344 C 209.765625 239.089844 209.332031 242.359375 208.140625 245.480469 C 206.96875 248.5625 205.230469 251.390625 203.601562 254.242188 C 201.890625 257.230469 200.234375 260.25 198.621094 263.292969 C 195.398438 269.378906 192.371094 275.570312 189.546875 281.851562 C 187.894531 285.523438 186.316406 289.226562 184.800781 292.957031 C 189.128906 248.832031 196.550781 209.785156 196.664062 209.195312 C 196.664062 209.191406 196.664062 209.1875 196.664062 209.1875 Z M 152.859375 218.152344 C 155.402344 215.824219 157.945312 213.5 160.492188 211.175781 L 157.0625 287.484375 C 154.011719 277.726562 150.988281 267.957031 148.148438 258.132812 C 146.4375 252.230469 144.75 246.3125 143.253906 240.355469 C 142.566406 237.625 141.972656 234.789062 142.277344 231.960938 C 142.582031 229.140625 143.976562 226.765625 145.867188 224.710938 C 148.027344 222.367188 150.507812 220.296875 152.859375 218.152344 Z M 126.601562 198.78125 C 125.621094 197.777344 124.6875 196.71875 123.804688 195.605469 C 123.136719 194.761719 122.5 193.890625 121.886719 192.988281 C 121.839844 193.027344 121.792969 193.070312 121.746094 193.105469 C 121.378906 193.398438 120.859375 192.882812 121.226562 192.589844 C 121.316406 192.519531 121.398438 192.445312 121.484375 192.378906 C 116.230469 184.363281 113.175781 174.222656 112.34375 163.09375 C 109.566406 125.777344 126.371094 106.503906 126.371094 106.503906 C 126.027344 105.902344 125.667969 105.3125 125.292969 104.734375 C 117.292969 92.414062 101.765625 85.671875 97.214844 83.902344 C 96.394531 83.585938 95.929688 83.425781 95.929688 83.425781 C 95.929688 83.425781 93.539062 85.984375 89.996094 90.628906 C 92.644531 91.554688 95.222656 92.664062 97.707031 93.96875 C 107.03125 98.867188 114.972656 106.339844 120.382812 115.378906 C 120.628906 115.785156 119.992188 116.152344 119.75 115.75 C 118.234375 113.21875 116.527344 110.804688 114.632812 108.546875 C 108.011719 100.65625 99.277344 94.59375 89.535156 91.238281 C 78.820312 105.445312 58.578125 137.609375 60.550781 175.75 C 61.664062 197.296875 72.042969 217.5625 83.761719 233.867188 C 100.125 256.640625 119.105469 271.6875 119.105469 271.6875 L 105.464844 360.382812 L 153.789062 360.382812 L 155.390625 324.71875 L 155.425781 323.949219 L 155.90625 313.195312 L 156.964844 289.628906 C 155.289062 284.277344 153.621094 278.925781 151.980469 273.5625 C 150.128906 267.496094 148.3125 261.417969 146.574219 255.320312 C 145.71875 252.308594 144.878906 249.296875 144.058594 246.273438 C 143.273438 243.371094 142.410156 240.464844 141.871094 237.507812 C 141.382812 234.8125 141.214844 231.972656 142.101562 229.335938 C 142.925781 226.894531 144.597656 224.882812 146.410156 223.101562 C 148.554688 220.992188 150.832031 219.011719 153.054688 216.984375 C 155.402344 214.835938 157.746094 212.691406 160.09375 210.546875 C 160.230469 210.421875 160.394531 210.425781 160.519531 210.5 L 160.535156 210.195312 C 145.945312 211.511719 134.621094 207 126.601562 198.78125 Z M 119.042969 271.226562 C 121.363281 266.652344 123.355469 261.917969 125 257.058594 C 127.90625 248.46875 129.75 239.519531 130.476562 230.480469 C 131.203125 221.441406 130.8125 212.316406 129.285156 203.375 C 129.203125 202.914062 129.910156 202.714844 129.988281 203.179688 C 130.859375 208.261719 131.375 213.40625 131.519531 218.558594 C 131.777344 227.6875 130.890625 236.851562 128.914062 245.769531 C 126.925781 254.71875 123.824219 263.417969 119.679688 271.597656 C 119.464844 272.019531 118.832031 271.644531 119.042969 271.226562 Z M 135.417969 325.777344 C 133.460938 327.359375 131.496094 328.933594 129.519531 330.492188 C 122.640625 335.921875 115.636719 341.191406 108.515625 346.300781 C 108.132812 346.578125 107.765625 345.941406 108.144531 345.667969 C 110.160156 344.222656 112.164062 342.769531 114.160156 341.296875 C 121.132812 336.15625 127.988281 330.851562 134.722656 325.398438 C 133.5625 322.378906 132.398438 319.363281 131.238281 316.34375 C 124.367188 321.308594 117.5 326.273438 110.628906 331.238281 C 110.246094 331.515625 109.882812 330.878906 110.261719 330.605469 C 117.246094 325.554688 124.234375 320.503906 131.222656 315.453125 C 131.433594 315.300781 131.6875 315.472656 131.761719 315.671875 C 133.011719 318.921875 134.261719 322.171875 135.511719 325.417969 C 135.554688 325.527344 135.511719 325.703125 135.417969 325.777344 Z M 135.417969 325.777344 " fill-opacity="1" fill-rule="nonzero"/></g><path fill="#f6e3be" d="M 278.242188 102.601562 C 273.410156 103.09375 255.074219 105.65625 240.222656 117.296875 L 240.214844 117.300781 C 240.214844 117.300781 236.027344 114.578125 231.171875 110.148438 C 228.476562 107.683594 225.570312 104.695312 223.066406 101.34375 C 216.054688 91.976562 214.9375 85.265625 218.570312 84.984375 C 221.839844 84.734375 230.433594 91.710938 232.136719 93.125 C 232.121094 93.351562 232.304688 93.601562 232.59375 93.53125 C 236.625 92.519531 241.011719 93.207031 244.507812 95.476562 C 247.738281 97.574219 250.058594 100.921875 250.960938 104.652344 C 251.011719 104.855469 251.171875 104.925781 251.332031 104.90625 C 251.535156 104.882812 251.730469 104.71875 251.667969 104.457031 C 250.867188 101.148438 249.019531 98.261719 246.523438 96.132812 C 250.910156 90.996094 254.675781 85.199219 257.449219 78.675781 C 257.699219 78.09375 257.9375 77.503906 258.171875 76.90625 C 260.054688 72.078125 261.164062 67.429688 261.609375 63.03125 C 261.6875 63.101562 261.769531 63.164062 261.84375 63.238281 C 269.667969 70.824219 276.320312 95.070312 278.242188 102.601562 Z M 159.167969 138.519531 C 160.125 142.011719 162.457031 145.019531 165.683594 146.695312 C 167.144531 147.453125 168.734375 147.925781 170.355469 148.113281 C 165.898438 145.605469 161.242188 141.53125 158.6875 135 C 158.691406 136.1875 158.851562 137.371094 159.167969 138.519531 Z M 213.371094 173.367188 C 210.5 186.152344 196.167969 183.882812 196.167969 183.882812 C 196.074219 185.160156 195.910156 186.390625 195.691406 187.578125 C 193.960938 193.734375 189.964844 199.183594 184.53125 202.617188 C 184.132812 202.867188 184.5 203.503906 184.902344 203.25 C 188.734375 200.828125 191.878906 197.421875 194.054688 193.480469 C 190.613281 202.664062 184.339844 207.898438 184.339844 207.898438 C 188.582031 209.777344 193.386719 209.632812 196.667969 209.1875 C 196.667969 209.1875 196.667969 209.1875 196.664062 209.1875 C 196.664062 209.1875 196.660156 209.191406 196.660156 209.195312 C 193.914062 216.636719 184.441406 225.15625 173.558594 224.992188 C 162.667969 224.828125 160.878906 212.152344 160.878906 212.152344 L 160.878906 207.011719 C 175.960938 205.484375 181.757812 194.9375 181.757812 194.9375 C 171.207031 199.640625 160.878906 198.003906 160.878906 198.003906 C 146.316406 195.9375 140.851562 185.6875 139.152344 175.433594 C 139.96875 175.835938 140.890625 176.0625 141.863281 176.0625 C 145.273438 176.0625 148.035156 173.292969 148.035156 169.886719 C 148.035156 166.476562 145.273438 163.710938 141.863281 163.710938 C 140.632812 163.710938 139.484375 164.074219 138.523438 164.699219 C 138.757812 157.730469 140.042969 152.460938 140.042969 152.460938 L 140.042969 152.457031 L 140.042969 152.460938 C 145.324219 151.664062 155.617188 138.199219 157.957031 135.054688 C 157.980469 137.921875 158.871094 140.773438 160.53125 143.132812 C 162.738281 146.269531 166.195312 148.285156 169.980469 148.804688 C 170.625 148.894531 171.269531 148.933594 171.914062 148.933594 C 177.085938 151.480469 181.589844 152.007812 181.589844 152.007812 C 183.957031 159.6875 193.9375 167.84375 193.9375 167.84375 C 193.9375 167.84375 195.6875 160.699219 201.421875 159.265625 C 207.15625 157.832031 216.234375 160.582031 213.371094 173.367188 Z M 155.765625 159.140625 C 155.976562 162.675781 154.875 166.214844 152.660156 168.984375 C 152.367188 169.347656 152.882812 169.871094 153.179688 169.503906 C 155.515625 166.585938 156.71875 162.878906 156.5 159.140625 C 156.46875 158.671875 155.738281 158.667969 155.765625 159.140625 Z M 144.613281 154.722656 C 146.574219 152.535156 149.835938 152.238281 152.171875 154.007812 C 152.546875 154.292969 152.914062 153.65625 152.542969 153.375 C 149.960938 151.417969 146.25 151.796875 144.097656 154.203125 C 143.78125 154.554688 144.300781 155.074219 144.613281 154.722656 Z M 152.355469 161.34375 C 152.355469 160.71875 150.421875 160.210938 148.035156 160.210938 C 145.648438 160.210938 143.714844 160.71875 143.714844 161.34375 C 143.714844 161.96875 145.648438 162.476562 148.035156 162.476562 C 150.421875 162.476562 152.355469 161.96875 152.355469 161.34375 Z M 159.140625 176.789062 C 158.523438 177.898438 157.332031 178.652344 156.050781 178.664062 C 154.773438 178.675781 153.566406 177.949219 152.929688 176.847656 C 152.695312 176.441406 152.058594 176.808594 152.296875 177.21875 C 153.058594 178.539062 154.519531 179.410156 156.054688 179.398438 C 157.582031 179.386719 159.035156 178.492188 159.773438 177.160156 C 160 176.746094 159.367188 176.375 159.140625 176.789062 Z M 164.003906 154.007812 C 166.214844 152.09375 169.417969 151.882812 171.886719 153.433594 C 172.285156 153.6875 172.65625 153.054688 172.257812 152.800781 C 169.496094 151.066406 165.941406 151.367188 163.484375 153.492188 C 163.128906 153.800781 163.648438 154.316406 164.003906 154.007812 Z M 167.90625 162.878906 C 170.292969 162.878906 172.226562 162.371094 172.226562 161.742188 C 172.226562 161.117188 170.292969 160.609375 167.90625 160.609375 C 165.523438 160.609375 163.589844 161.117188 163.589844 161.742188 C 163.585938 162.371094 165.519531 162.878906 167.90625 162.878906 Z M 177.328125 170.5625 C 177.328125 167.152344 174.566406 164.390625 171.15625 164.390625 C 167.75 164.390625 164.984375 167.152344 164.984375 170.5625 C 164.984375 173.972656 167.75 176.738281 171.15625 176.738281 C 174.566406 176.738281 177.328125 173.972656 177.328125 170.5625 Z M 206.652344 164.257812 C 204.46875 164.148438 202.25 165.011719 200.753906 166.617188 C 199.253906 168.226562 198.523438 170.480469 198.78125 172.660156 C 198.835938 173.121094 199.570312 173.128906 199.515625 172.660156 C 199.277344 170.667969 199.894531 168.613281 201.273438 167.136719 C 202.648438 165.664062 204.648438 164.890625 206.652344 164.992188 C 207.125 165.015625 207.125 164.28125 206.652344 164.257812 Z M 150.824219 95.886719 C 159.523438 91.039062 161.6875 88.042969 160.535156 85.761719 C 159.460938 83.636719 150.503906 84.847656 145.242188 86.632812 C 145.027344 86.707031 144.816406 86.78125 144.613281 86.855469 C 144.613281 87.117188 144.359375 87.371094 144.085938 87.183594 C 142.375 86 140.5 85.085938 138.503906 84.484375 C 132.015625 82.527344 124.925781 84.128906 119.863281 88.558594 C 119.582031 88.804688 119.304688 89.054688 119.035156 89.316406 C 118.695312 89.648438 118.179688 89.132812 118.515625 88.800781 C 119.976562 87.363281 121.644531 86.144531 123.464844 85.203125 C 129.039062 82.316406 135.648438 82.226562 141.277344 84.769531 C 135.988281 74.25 132.753906 64.097656 131.789062 54.949219 L 124.789062 61.753906 C 124.789062 61.753906 132.015625 47.300781 129.605469 45.222656 C 127.273438 43.214844 102.457031 62.964844 97.214844 83.902344 C 101.765625 85.671875 117.292969 92.414062 125.289062 104.734375 L 125.320312 104.699219 L 125.375 104.859375 C 125.375 104.859375 139.3125 101.425781 148.363281 97.144531 C 149.234375 96.730469 150.0625 96.3125 150.824219 95.886719 Z M 150.824219 95.886719 " fill-opacity="1" fill-rule="nonzero"/><path fill="#e59973" d="M 171.15625 164.390625 C 174.566406 164.390625 177.328125 167.152344 177.328125 170.5625 C 177.328125 173.972656 174.566406 176.738281 171.15625 176.738281 C 167.75 176.738281 164.984375 173.972656 164.984375 170.5625 C 164.984375 167.152344 167.746094 164.390625 171.15625 164.390625 Z M 148.035156 169.890625 C 148.035156 166.476562 145.273438 163.710938 141.863281 163.710938 C 140.632812 163.710938 139.484375 164.074219 138.523438 164.699219 C 138.402344 168.023438 138.53125 171.730469 139.152344 175.4375 C 139.96875 175.835938 140.890625 176.0625 141.863281 176.0625 C 145.273438 176.0625 148.035156 173.296875 148.035156 169.890625 Z M 148.035156 169.890625 " fill-opacity="1" fill-rule="nonzero"/><path fill="#353535" d="M 155.765625 159.140625 C 155.738281 158.667969 156.46875 158.671875 156.5 159.140625 C 156.71875 162.878906 155.515625 166.585938 153.179688 169.503906 C 152.882812 169.871094 152.367188 169.347656 152.660156 168.984375 C 154.875 166.214844 155.976562 162.675781 155.765625 159.140625 Z M 144.613281 154.722656 C 146.574219 152.535156 149.835938 152.238281 152.171875 154.007812 C 152.546875 154.292969 152.914062 153.65625 152.542969 153.375 C 149.960938 151.417969 146.25 151.796875 144.097656 154.203125 C 143.78125 154.554688 144.300781 155.074219 144.613281 154.722656 Z M 172.257812 152.800781 C 169.496094 151.066406 165.941406 151.367188 163.484375 153.492188 C 163.128906 153.800781 163.648438 154.316406 164.003906 154.007812 C 166.214844 152.09375 169.417969 151.882812 171.886719 153.433594 C 172.285156 153.6875 172.65625 153.050781 172.257812 152.800781 Z M 159.140625 176.789062 C 158.523438 177.898438 157.332031 178.652344 156.050781 178.664062 C 154.773438 178.675781 153.566406 177.949219 152.929688 176.847656 C 152.695312 176.441406 152.058594 176.808594 152.296875 177.21875 C 153.058594 178.539062 154.519531 179.410156 156.054688 179.398438 C 157.582031 179.386719 159.035156 178.492188 159.773438 177.160156 C 160 176.746094 159.367188 176.375 159.140625 176.789062 Z M 148.035156 160.210938 C 145.648438 160.210938 143.714844 160.71875 143.714844 161.34375 C 143.714844 161.96875 145.648438 162.476562 148.035156 162.476562 C 150.421875 162.476562 152.355469 161.96875 152.355469 161.34375 C 152.355469 160.71875 150.421875 160.210938 148.035156 160.210938 Z M 167.90625 160.609375 C 165.523438 160.609375 163.589844 161.117188 163.589844 161.742188 C 163.589844 162.371094 165.523438 162.878906 167.90625 162.878906 C 170.292969 162.878906 172.226562 162.371094 172.226562 161.742188 C 172.226562 161.117188 170.292969 160.609375 167.90625 160.609375 Z M 210.1875 238.035156 C 210.324219 241.246094 209.496094 244.335938 208.199219 247.246094 C 206.84375 250.285156 205.070312 253.117188 203.441406 256.007812 C 201.726562 259.039062 200.066406 262.101562 198.453125 265.1875 C 193.292969 275.058594 188.660156 285.203125 184.550781 295.558594 C 183.996094 301.4375 183.496094 307.394531 183.078125 313.351562 C 180.984375 313.703125 179.011719 313.976562 177.144531 314.179688 C 177.683594 316.28125 178.023438 318.425781 178.160156 320.589844 C 178.28125 322.523438 178.234375 324.460938 178.039062 326.386719 C 179.484375 326.195312 180.921875 325.9375 182.34375 325.609375 C 182.328125 325.863281 182.316406 326.117188 182.304688 326.371094 C 181.429688 326.570312 180.550781 326.75 179.664062 326.898438 C 179.09375 326.992188 178.523438 327.074219 177.949219 327.148438 C 177.027344 334.652344 173.769531 341.863281 168.554688 347.355469 C 169.839844 347.214844 171.105469 346.976562 172.351562 346.632812 C 172.808594 346.507812 173 347.214844 172.546875 347.339844 C 171.292969 347.683594 170.015625 347.921875 168.726562 348.070312 C 168.839844 351.898438 168.988281 355.730469 169.097656 359.558594 C 169.113281 360.03125 168.378906 360.027344 168.363281 359.558594 C 168.253906 355.753906 168.109375 351.953125 167.996094 348.148438 C 167.992188 348.148438 167.984375 348.148438 167.976562 348.148438 C 167.839844 348.160156 167.746094 348.101562 167.691406 348.015625 C 165.710938 347.65625 163.734375 347.296875 161.757812 346.941406 C 161.296875 346.855469 161.492188 346.148438 161.953125 346.234375 C 163.648438 346.539062 165.34375 346.847656 167.035156 347.15625 C 167.035156 347.152344 167.035156 347.152344 167.035156 347.148438 C 166.988281 344.675781 166.941406 342.199219 166.894531 339.726562 C 166.820312 335.578125 166.742188 331.433594 166.664062 327.285156 C 162.824219 326.886719 159.03125 326.027344 155.390625 324.71875 L 155.425781 323.949219 C 157.332031 324.644531 159.28125 325.226562 161.265625 325.671875 C 163.042969 326.070312 164.839844 326.359375 166.648438 326.550781 C 166.574219 322.585938 166.5 318.621094 166.425781 314.660156 C 161.984375 314.519531 158.535156 313.925781 155.90625 313.195312 L 156.964844 289.628906 C 155.289062 284.277344 153.617188 278.921875 151.980469 273.5625 C 150.125 267.496094 148.3125 261.417969 146.574219 255.320312 C 145.714844 252.308594 144.875 249.292969 144.058594 246.273438 C 143.273438 243.371094 142.40625 240.464844 141.871094 237.507812 C 141.378906 234.8125 141.214844 231.972656 142.101562 229.335938 C 142.921875 226.894531 144.597656 224.882812 146.410156 223.101562 C 148.554688 220.992188 150.832031 219.011719 153.050781 216.980469 C 155.398438 214.835938 157.746094 212.691406 160.09375 210.546875 C 160.230469 210.417969 160.394531 210.425781 160.519531 210.496094 L 160.535156 210.195312 C 157.335938 210.195312 150.113281 209.789062 143.53125 206.535156 C 143.53125 206.535156 146.5 201.640625 145.839844 195.710938 C 145.839844 195.710938 143.113281 203.28125 140.453125 205.53125 C 140.453125 205.53125 132.210938 202.796875 126.597656 198.78125 C 125.617188 197.777344 124.6875 196.71875 123.804688 195.605469 C 125.117188 193.804688 129.992188 186.617188 132.242188 176.265625 C 130.347656 182.695312 127.207031 188.714844 121.886719 192.992188 C 121.839844 193.03125 121.792969 193.070312 121.746094 193.109375 C 121.378906 193.398438 120.859375 192.882812 121.226562 192.589844 C 121.3125 192.519531 121.394531 192.449219 121.480469 192.378906 C 123.453125 190.777344 125.167969 188.886719 126.609375 186.796875 C 130.578125 181.03125 132.351562 174.335938 133.375 167.503906 C 134.292969 151.554688 133.136719 122.128906 159.808594 112.867188 C 160.570312 113.792969 161.347656 114.71875 162.136719 115.644531 C 165.628906 119.746094 169.398438 123.8125 173.429688 127.804688 C 175.160156 129.507812 176.945312 131.210938 178.769531 132.890625 C 178.769531 132.890625 183.5 131.988281 190.71875 129.753906 C 197.441406 127.671875 206.324219 124.429688 215.539062 119.691406 C 215.542969 119.691406 215.542969 119.691406 215.542969 119.6875 C 215.542969 119.691406 215.546875 119.691406 215.546875 119.691406 C 215.546875 119.691406 218.410156 124.539062 221.777344 132.929688 C 222.679688 134.550781 223.542969 136.191406 224.351562 137.863281 C 229.320312 148.132812 232.433594 159.257812 233.519531 170.613281 C 233.5625 171.085938 232.832031 171.082031 232.785156 170.613281 C 232.480469 167.414062 232.011719 164.230469 231.382812 161.074219 C 229.847656 153.386719 227.355469 145.902344 223.996094 138.824219 C 228.414062 151.355469 232.828125 169.167969 232.40625 189.609375 C 228.996094 195.613281 224.457031 201.046875 218.472656 205.421875 C 214.589844 207.210938 209.871094 208.457031 204.265625 208.386719 C 204.265625 208.386719 207.992188 202.761719 207.035156 195.59375 C 207.035156 195.59375 203.808594 205.890625 200.582031 208.390625 C 200.582031 208.390625 199.566406 208.699219 197.945312 208.988281 C 197.972656 209.089844 198.007812 209.1875 198.035156 209.289062 C 200.050781 216.332031 204.839844 222.101562 207.773438 228.742188 C 209.074219 231.679688 210.050781 234.804688 210.1875 238.035156 Z M 158.6875 135 C 158.691406 136.1875 158.851562 137.371094 159.167969 138.523438 C 160.125 142.015625 162.457031 145.023438 165.683594 146.695312 C 167.144531 147.453125 168.734375 147.925781 170.355469 148.113281 C 165.898438 145.601562 161.242188 141.53125 158.6875 135 Z M 160.492188 211.175781 C 157.945312 213.5 155.402344 215.824219 152.859375 218.152344 C 150.507812 220.296875 148.027344 222.367188 145.867188 224.710938 C 143.976562 226.765625 142.582031 229.140625 142.277344 231.960938 C 141.972656 234.789062 142.566406 237.625 143.253906 240.355469 C 144.753906 246.3125 146.441406 252.230469 148.148438 258.132812 C 150.988281 267.957031 154.011719 277.726562 157.0625 287.484375 Z M 177.199219 327.234375 C 173.945312 327.601562 170.65625 327.640625 167.398438 327.351562 C 167.519531 333.941406 167.644531 340.53125 167.769531 347.125 C 169.621094 345.21875 171.242188 343.101562 172.59375 340.808594 C 175.039062 336.65625 176.597656 332.003906 177.199219 327.234375 Z M 176.40625 314.261719 C 172.949219 314.613281 169.875 314.730469 167.160156 314.675781 C 167.199219 316.78125 167.238281 318.882812 167.28125 320.984375 C 167.316406 322.863281 167.351562 324.746094 167.386719 326.625 C 170.679688 326.917969 174 326.875 177.28125 326.488281 C 177.710938 322.402344 177.441406 318.246094 176.40625 314.261719 Z M 209.21875 235.777344 C 208.675781 232.484375 207.378906 229.367188 205.847656 226.421875 C 202.894531 220.734375 198.976562 215.484375 197.257812 209.230469 C 197.246094 209.1875 197.230469 209.148438 197.21875 209.105469 C 197.042969 209.132812 196.855469 209.160156 196.667969 209.1875 C 193.386719 209.632812 188.582031 209.777344 184.339844 207.898438 C 184.339844 207.898438 190.613281 202.664062 194.054688 193.480469 C 191.878906 197.425781 188.734375 200.832031 184.902344 203.25 C 184.5 203.503906 184.132812 202.867188 184.53125 202.617188 C 189.964844 199.1875 193.960938 193.734375 195.691406 187.578125 C 195.910156 186.390625 196.074219 185.160156 196.167969 183.882812 C 196.167969 183.882812 210.5 186.152344 213.371094 173.367188 C 216.234375 160.582031 207.15625 157.835938 201.421875 159.269531 C 195.6875 160.703125 193.941406 167.847656 193.941406 167.847656 C 193.941406 167.847656 183.960938 159.6875 181.589844 152.011719 C 181.589844 152.011719 177.085938 151.484375 171.914062 148.933594 C 171.269531 148.933594 170.625 148.894531 169.984375 148.808594 C 166.199219 148.289062 162.738281 146.273438 160.535156 143.136719 C 158.875 140.773438 157.980469 137.925781 157.960938 135.054688 C 155.621094 138.199219 145.328125 151.664062 140.042969 152.460938 C 140.042969 152.460938 138.757812 157.730469 138.523438 164.699219 C 138.40625 168.023438 138.535156 171.734375 139.152344 175.4375 C 140.855469 185.691406 146.316406 195.9375 160.882812 198.003906 C 160.882812 198.003906 171.210938 199.640625 181.757812 194.9375 C 181.757812 194.9375 175.964844 205.488281 160.882812 207.011719 L 160.882812 212.152344 C 160.882812 212.152344 162.671875 224.832031 173.5625 224.992188 C 184.441406 225.15625 193.917969 216.640625 196.664062 209.199219 C 196.550781 209.789062 189.128906 248.832031 184.804688 292.957031 C 186.316406 289.226562 187.898438 285.523438 189.546875 281.851562 C 192.375 275.570312 195.398438 269.382812 198.621094 263.292969 C 200.234375 260.25 201.894531 257.234375 203.601562 254.242188 C 205.230469 251.390625 206.96875 248.5625 208.144531 245.484375 C 209.332031 242.359375 209.765625 239.089844 209.21875 235.777344 Z M 125 257.058594 C 123.355469 261.917969 121.363281 266.652344 119.042969 271.226562 C 118.832031 271.644531 119.464844 272.015625 119.675781 271.597656 C 123.820312 263.417969 126.925781 254.71875 128.910156 245.769531 C 130.890625 236.851562 131.773438 227.6875 131.519531 218.558594 C 131.375 213.40625 130.859375 208.265625 129.988281 203.179688 C 129.910156 202.714844 129.203125 202.914062 129.28125 203.375 C 130.8125 212.316406 131.199219 221.441406 130.472656 230.480469 C 129.75 239.519531 127.90625 248.46875 125 257.058594 Z M 212.476562 226.554688 C 211.460938 221.714844 210.667969 216.832031 210.097656 211.917969 C 210.046875 211.457031 209.3125 211.449219 209.367188 211.917969 C 210.375 220.605469 212.066406 229.207031 214.433594 237.625 C 216.800781 246.039062 219.839844 254.261719 223.503906 262.199219 C 225.589844 266.71875 227.882812 271.140625 230.371094 275.449219 C 230.605469 275.859375 231.238281 275.492188 231.003906 275.082031 C 226.648438 267.53125 222.890625 259.640625 219.789062 251.496094 C 216.703125 243.390625 214.253906 235.042969 212.476562 226.554688 Z M 131.761719 315.671875 C 131.6875 315.472656 131.433594 315.300781 131.222656 315.453125 C 124.238281 320.503906 117.25 325.554688 110.261719 330.605469 C 109.882812 330.878906 110.246094 331.515625 110.628906 331.238281 C 117.5 326.273438 124.367188 321.308594 131.238281 316.34375 C 132.398438 319.363281 133.5625 322.378906 134.722656 325.398438 C 127.988281 330.851562 121.132812 336.15625 114.160156 341.296875 C 112.164062 342.769531 110.160156 344.222656 108.144531 345.667969 C 107.765625 345.941406 108.132812 346.578125 108.515625 346.300781 C 115.636719 341.191406 122.640625 335.921875 129.519531 330.492188 C 131.496094 328.933594 133.460938 327.363281 135.417969 325.777344 C 135.511719 325.703125 135.554688 325.527344 135.511719 325.417969 C 134.261719 322.167969 133.011719 318.917969 131.761719 315.671875 Z M 248.796875 338.316406 C 248.613281 338.242188 248.433594 338.164062 248.253906 338.089844 C 239.503906 334.476562 230.828125 330.695312 222.230469 326.742188 C 219.867188 325.65625 217.511719 324.554688 215.160156 323.445312 C 216.308594 320.355469 217.457031 317.265625 218.605469 314.179688 C 227.4375 317.210938 236.085938 320.777344 244.492188 324.851562 C 244.507812 324.859375 244.523438 324.859375 244.539062 324.863281 C 244.941406 325 245.269531 324.417969 244.863281 324.21875 C 244.667969 324.125 244.472656 324.035156 244.28125 323.941406 C 235.898438 319.90625 227.285156 316.367188 218.484375 313.359375 C 218.285156 313.292969 218.097656 313.4375 218.03125 313.617188 C 216.804688 316.921875 215.578125 320.226562 214.347656 323.535156 C 214.296875 323.671875 214.378906 323.882812 214.515625 323.949219 C 223.277344 328.09375 232.121094 332.066406 241.039062 335.855469 C 243.523438 336.914062 246.011719 337.953125 248.503906 338.980469 C 248.535156 338.996094 248.570312 339.007812 248.601562 339.023438 C 249.035156 339.203125 249.226562 338.492188 248.796875 338.316406 Z M 114.632812 108.546875 C 116.527344 110.804688 118.238281 113.21875 119.753906 115.75 C 119.996094 116.152344 120.628906 115.785156 120.386719 115.378906 C 114.972656 106.339844 107.03125 98.867188 97.707031 93.96875 C 95.226562 92.664062 92.644531 91.554688 90 90.628906 C 89.863281 90.582031 89.726562 90.527344 89.589844 90.480469 C 89.140625 90.328125 88.949219 91.035156 89.394531 91.1875 C 89.441406 91.203125 89.488281 91.222656 89.535156 91.238281 C 99.277344 94.59375 108.015625 100.65625 114.632812 108.546875 Z M 284.042969 114.414062 C 271.71875 114.398438 259.449219 117.742188 248.804688 123.941406 C 246.046875 125.546875 243.410156 127.355469 240.902344 129.324219 C 240.683594 129.5 240.457031 129.664062 240.238281 129.839844 C 239.871094 130.136719 240.390625 130.652344 240.753906 130.359375 C 240.835938 130.292969 240.921875 130.234375 241.003906 130.167969 C 250.429688 122.652344 261.84375 117.71875 273.757812 115.910156 C 277.160156 115.390625 280.601562 115.144531 284.042969 115.148438 C 284.511719 115.148438 284.515625 114.414062 284.042969 114.414062 Z M 232.59375 93.53125 C 236.628906 92.519531 241.015625 93.207031 244.511719 95.476562 C 247.738281 97.574219 250.058594 100.921875 250.960938 104.652344 C 251.011719 104.855469 251.175781 104.925781 251.332031 104.90625 C 251.535156 104.882812 251.730469 104.714844 251.667969 104.457031 C 250.867188 101.148438 249.019531 98.261719 246.523438 96.132812 C 244.199219 94.152344 241.3125 92.828125 238.164062 92.449219 C 236.238281 92.21875 234.28125 92.351562 232.398438 92.824219 C 232.230469 92.867188 232.148438 92.988281 232.140625 93.125 C 232.121094 93.351562 232.304688 93.601562 232.59375 93.53125 Z M 119.035156 89.316406 C 119.304688 89.054688 119.582031 88.804688 119.867188 88.558594 C 124.929688 84.128906 132.019531 82.527344 138.507812 84.484375 C 140.5 85.082031 142.375 86 144.085938 87.183594 C 144.359375 87.371094 144.613281 87.117188 144.613281 86.855469 C 144.613281 86.742188 144.574219 86.628906 144.457031 86.550781 C 143.445312 85.851562 142.378906 85.265625 141.28125 84.769531 C 135.652344 82.226562 129.039062 82.316406 123.46875 85.203125 C 121.648438 86.144531 119.980469 87.363281 118.519531 88.800781 C 118.179688 89.132812 118.699219 89.648438 119.035156 89.316406 Z M 199.515625 172.660156 C 199.277344 170.667969 199.894531 168.613281 201.273438 167.136719 C 202.648438 165.664062 204.648438 164.890625 206.652344 164.992188 C 207.125 165.015625 207.121094 164.28125 206.652344 164.257812 C 204.46875 164.148438 202.25 165.011719 200.753906 166.617188 C 199.253906 168.226562 198.523438 170.480469 198.78125 172.660156 C 198.835938 173.121094 199.570312 173.128906 199.515625 172.660156 Z M 198.269531 43.84375 C 198.339844 44.308594 199.046875 44.109375 198.976562 43.648438 C 198.730469 42.039062 198.355469 40.457031 197.863281 38.910156 C 197.332031 37.238281 196.664062 35.609375 195.859375 34.046875 C 195.699219 33.734375 195.308594 33.859375 195.207031 34.113281 C 195.171875 34.203125 195.171875 34.308594 195.226562 34.414062 C 196.746094 37.375 197.765625 40.554688 198.269531 43.84375 Z M 198.269531 43.84375 " fill-opacity="1" fill-rule="nonzero"/></svg>